<?xml version="1.0" standalone="no"?>
<!DOCTYPE svg PUBLIC "-//W3C//DTD SVG 1.1//EN" "http://www.w3.org/Graphics/SVG/1.1/DTD/svg11.dtd" >
<svg xmlns="http://www.w3.org/2000/svg" xmlns:xlink="http://www.w3.org/1999/xlink" version="1.1">
<metadata>
Created by FontForge 20170731 at Thu Jun  1 22:30:35 2017
 By Aleksey,,,
</metadata>
<defs>
<font id="Sandro-Bold" horiz-adv-x="493" >
  <font-face 
    font-family="Sandro"
    font-weight="700"
    font-stretch="normal"
    units-per-em="1000"
    panose-1="2 11 5 2 2 2 4 2 3 3"
    ascent="800"
    descent="-200"
    x-height="376"
    cap-height="603"
    bbox="-363 -299 942 805"
    underline-thickness="50"
    underline-position="-150"
    unicode-range="U+0020-FB02"
  />
<missing-glyph horiz-adv-x="400" 
d="M400 560v-560h-400v560h400zM64 520l136 -204l136 204h-272zM176 280l-136 204v-408zM360 484l-136 -204l136 -204v408zM200 244l-136 -204h272z" />
    <glyph glyph-name="fi" unicode="fi" horiz-adv-x="415" 
d="M57 0v317h-35v59h35v150q0 33 3 56t14 41q14 24 39.5 35.5t56.5 11.5q22 0 46 -8v-64q-28 8 -43 8q-25 0 -36 -11t-13.5 -31t-2.5 -61v-127h95v-59h-95v-317h-64zM342.5 549.5q13.5 -13.5 13.5 -31.5q0 -19 -13.5 -32.5t-32.5 -13.5q-18 0 -31.5 13.5t-13.5 32.5
q0 18 13.5 31.5t31.5 13.5q19 0 32.5 -13.5zM278 0v376h64v-376h-64z" />
    <glyph glyph-name="fl" unicode="fl" horiz-adv-x="401" 
d="M57 0v317h-35v59h35v150q0 33 3 56t14 41q14 24 39.5 35.5t56.5 11.5q22 0 46 -8v-64q-28 8 -43 8q-25 0 -36 -11t-13.5 -31t-2.5 -61v-127h95v-59h-95v-317h-64zM278 0v660h64v-660h-64z" />
    <glyph glyph-name=".notdef" horiz-adv-x="400" 
d="M400 560v-560h-400v560h400zM64 520l136 -204l136 204h-272zM176 280l-136 204v-408zM360 484l-136 -204l136 -204v408zM200 244l-136 -204h272z" />
    <glyph glyph-name=".null" horiz-adv-x="0" 
 />
    <glyph glyph-name="nonmarkingreturn" horiz-adv-x="333" 
 />
    <glyph glyph-name="space" unicode=" " horiz-adv-x="350" 
 />
    <glyph glyph-name="exclam" unicode="!" horiz-adv-x="270" 
d="M168 603v-481h-66v481h66zM167 66q13 -13 13 -31q0 -19 -13 -32t-32 -13t-32 13t-13 32q0 18 13 31t32 13t32 -13z" />
    <glyph glyph-name="quotedbl" unicode="&#x22;" horiz-adv-x="366" 
d="M142 341h-46l-14 262h75zM270 341h-47l-14 262h75z" />
    <glyph glyph-name="numbersign" unicode="#" 
d="M222 440h99l28 163h63l-28 -163h74v-62h-84l-24 -137h81v-63h-92l-32 -178h-61l32 178h-99l-33 -178h-60l31 178h-82v63h92l23 137h-85v62h95l29 163h61zM288 241l23 137h-98l-23 -137h98z" />
    <glyph glyph-name="dollar" unicode="$" 
d="M127.5 363q-37.5 35 -37.5 95q0 61 40.5 101.5t101.5 49.5v82h53v-82q40 -5 74 -30t52 -61l-53 -35q-30 53 -73 62v-198q71 -30 110 -67.5t39 -102.5q0 -66 -42 -116.5t-107 -64.5v-88h-53v83q-64 3 -113 47t-60 108l65 19q5 -43 35.5 -75t72.5 -35v244q-67 29 -104.5 64
zM179 514q-21 -26 -21 -59q0 -51 74 -85v176q-32 -6 -53 -32zM344 104.5q22 30.5 22 70.5q0 35 -22 58.5t-59 41.5v-214q37 13 59 43.5z" />
    <glyph glyph-name="percent" unicode="%" horiz-adv-x="638" 
d="M227 596.5q31 -17.5 49 -48t18 -66.5t-18 -66.5t-49 -48t-67 -17.5t-67 17.5t-49 47.5t-18 67q0 36 18 66.5t49 48t67 17.5t67 -17.5zM161 -10l-35 20l352 604l32 -20zM101.5 538.5q-24.5 -23.5 -24.5 -56.5t24.5 -56.5t58.5 -23.5t58.5 23.5t24.5 56.5t-24.5 56.5
t-58.5 23.5t-58.5 -23.5zM546 235.5q31 -17.5 49 -48t18 -66.5t-18.5 -66t-49.5 -47.5t-67 -17.5t-66.5 17t-49 47t-18.5 67q0 36 18 66.5t49 48t67 17.5q37 0 68 -17.5zM420 178q-25 -24 -25 -57t25 -56.5t58 -23.5q34 0 59 23.5t25 56.5t-25 57t-59 24q-33 0 -58 -24z" />
    <glyph glyph-name="ampersand" unicode="&#x26;" horiz-adv-x="556" 
d="M304.5 15.5q-46.5 -25.5 -97.5 -25.5q-46 0 -86.5 21t-65 58.5t-24.5 84.5t20 82t49 59.5t79 57.5l7 5q-31 42 -45.5 68.5t-14.5 59.5q0 56 37.5 92t94.5 36q52 0 90 -33.5t38 -85.5q0 -34 -14.5 -60t-35 -44.5t-56.5 -45.5l127 -163l68 80l49 -40l-77 -90l103 -132h-85
l-65 85q-49 -44 -95.5 -69.5zM275.5 418.5q22.5 16.5 34.5 35.5t12 41q0 27 -19 44.5t-46 17.5q-28 0 -47.5 -19.5t-19.5 -47.5q0 -17 7.5 -31t16.5 -27t13 -18l15 -20l5 4q6 4 28.5 20.5zM123 228.5q-26 -28.5 -26 -69.5q0 -43 32 -76t74 -33q40 0 74.5 22t82.5 63
l-134 173l-29 -19q-48 -32 -74 -60.5z" />
    <glyph glyph-name="quotesingle" unicode="'" horiz-adv-x="231" 
d="M139 341h-46l-15 262h76z" />
    <glyph glyph-name="parenleft" unicode="(" horiz-adv-x="230" 
d="M140 219q0 -216 64 -384l-57 -27q-39 82 -56 191.5t-17 219.5q0 111 17 219.5t56 191.5l57 -27q-64 -168 -64 -384z" />
    <glyph glyph-name="parenright" unicode=")" horiz-adv-x="230" 
d="M138 438.5q17 -108.5 17 -219.5q0 -110 -17 -219.5t-56 -191.5l-56 27q64 172 64 384t-64 384l56 27q39 -83 56 -191.5z" />
    <glyph glyph-name="asterisk" unicode="*" horiz-adv-x="474" 
d="M267 603l-5 -112l106 39l19 -57l-109 -31l70 -88l-49 -36l-62 95l-63 -95l-48 36l70 88l-109 31l19 57l106 -39l-5 112h60z" />
    <glyph glyph-name="plus" unicode="+" 
d="M278 236h162v-62h-162v-163h-63v163h-162v62h162v162h63v-162z" />
    <glyph glyph-name="comma" unicode="," horiz-adv-x="246" 
d="M90 -138l-44 18l75 208l59 -21z" />
    <glyph glyph-name="hyphen" unicode="-" horiz-adv-x="166" 
d="M166 163h-164v59h164v-59z" />
    <glyph glyph-name="period" unicode="." horiz-adv-x="246" 
d="M155 66q13 -13 13 -31q0 -19 -13 -32t-32 -13t-32 13t-13 32q0 18 13 31t32 13t32 -13z" />
    <glyph glyph-name="slash" unicode="/" horiz-adv-x="456" 
d="M66 -126l-52 24l375 762l53 -24z" />
    <glyph glyph-name="zero" unicode="0" horiz-adv-x="497" 
d="M384 602.5q39 -59.5 46 -160.5q3 -38 3 -128q0 -88 -11.5 -158t-53.5 -121t-126 -51h-3q-107 0 -141 100.5t-34 222.5q0 98 3 135q7 76 22 121t53 73t109 34q94 -8 133 -67.5zM336 556.5q-24 40.5 -84 45.5q-48 -4 -72.5 -25t-32.5 -52.5t-13 -88.5q-3 -37 -3 -129
q0 -99 20 -177.5t91 -78.5q127 0 127 244v50q0 73 -3 101q-6 70 -30 110.5z" />
    <glyph glyph-name="one" unicode="1" horiz-adv-x="496" 
d="M246 661h64v-661h-68v535q-24 -33 -49 -73q-2 -3 -19 -28l-80 -1z" />
    <glyph glyph-name="two" unicode="2" horiz-adv-x="497" 
d="M41 481q0 52 29.5 93t75.5 64t95 23q54 0 97.5 -26t68 -70t24.5 -95q0 -64 -38 -123l-239 -281h288v-64h-440l339 392l-1 -3q12 23 18.5 41.5t6.5 38.5q0 57 -37 89t-90 32q-30 0 -60.5 -14.5t-51 -40.5t-20.5 -58q0 -22 4 -37h-67q-2 13 -2 39z" />
    <glyph glyph-name="three" unicode="3" horiz-adv-x="496" 
d="M309 410.5q25 20.5 40 50t15 55.5q0 42 -36.5 68t-82.5 26q-84 0 -116 -71q-7 -15 -9 -31t-2 -42h-72q0 57 12 90q20 55 68 87t115 32q81 0 135.5 -39.5t57.5 -124.5q-2 -39 -13.5 -66t-27 -43.5t-40.5 -36.5q35 -27 56 -72.5t21 -106.5q0 -89 -45 -146.5t-147 -57.5
q-84 0 -140 49t-56 143q0 7 3 20.5l5 22.5h68q-8 -31 -8 -50q0 -55 40 -89q16 -14 40 -22t49 -8q56 0 87 31q39 38 39 115q0 53 -20 83.5t-63 44.5h-26v68q28 0 53 20.5z" />
    <glyph glyph-name="four" unicode="4" horiz-adv-x="496" 
d="M398 143v-140l-66 -3v143h-281q0 93 2 263l1 236h67l-1 -223q-1 -71 -1 -209h213v250h68q0 -82 -2 -250h58v-67h-58z" />
    <glyph glyph-name="five" unicode="5" horiz-adv-x="496" 
d="M106 177q0 -57 36.5 -93t93.5 -36q62 0 98 44t36 118q0 65 -30 110t-80 45q-30 0 -60 -14.5t-53 -38.5h-57v328h340v-67h-274v-169q55 29 106 29q54 0 93.5 -32t60.5 -85t21 -114q0 -71 -27.5 -120.5t-73 -74.5t-100.5 -25q-51 0 -96 23t-72.5 66t-27.5 100
q0 23 1.5 35.5t7.5 33.5l65 -6q-8 -31 -8 -57z" />
    <glyph glyph-name="six" unicode="6" horiz-adv-x="496" 
d="M346 352.5q37 -29.5 56.5 -75t19.5 -92.5q0 -90 -47 -147.5t-141 -57.5q-55 0 -96.5 29.5t-63.5 78t-22 102.5q0 168 45 275t117 190h100q-58 -51 -109 -138t-68 -167q48 32 105 32h8h10q49 0 86 -29.5zM180.5 296q-26.5 -18 -42.5 -49t-16 -67q0 -30 12 -60.5t37 -50
t60 -19.5q61 0 92 34.5t31 93.5q0 52 -27.5 91t-77.5 45h-10q-32 0 -58.5 -18z" />
    <glyph glyph-name="seven" unicode="7" horiz-adv-x="495" 
d="M452 635v-48l-67 -114q-47 -79 -77.5 -134.5t-57.5 -117.5q-40 -90 -72 -221h-67l11 41q21 78 34 121.5t33 84.5q33 72 95.5 183.5t79.5 136.5h-306v68h394z" />
    <glyph glyph-name="eight" unicode="8" horiz-adv-x="496" 
d="M325 646q32 -24 48.5 -60.5t16.5 -75.5q0 -58 -13.5 -94.5t-40.5 -58.5q41 -28 64.5 -73.5t23.5 -96.5q0 -89 -48 -146.5t-142 -57.5q-55 0 -96 29.5t-62.5 77.5t-21.5 102q0 52 24.5 94.5t65.5 67.5q-58 47 -58 161q0 36 19.5 74t53 62.5t71.5 24.5q5 0 19 -2
q44 -4 76 -28zM179.5 576.5q-25.5 -29.5 -25.5 -70.5q0 -44 20 -79.5t58 -35.5q90 0 90 114q0 39 -18.5 70t-56.5 31h-8q-34 0 -59.5 -29.5zM181.5 296.5q-26.5 -17.5 -42.5 -48t-16 -66.5q0 -30 12 -60t37 -50t60 -20q61 0 92 35t31 94q0 52 -27 89.5t-78 43.5h-10
q-32 0 -58.5 -17.5z" />
    <glyph glyph-name="nine" unicode="9" horiz-adv-x="496" 
d="M129.5 277.5q-37.5 30.5 -57.5 76t-20 92.5q0 89 48.5 147.5t141.5 58.5q55 0 97 -30t64.5 -79t22.5 -102q0 -100 -19.5 -177.5t-52.5 -143.5q-36 -71 -95 -137h-93q58 52 106.5 133t65.5 161q-50 -37 -121 -32q-50 2 -87.5 32.5zM291.5 331q29.5 19 46 51t16.5 68
q0 30 -12.5 61t-37.5 51.5t-59 20.5q-61 0 -92 -36t-31 -95q0 -53 27 -93t77 -47q36 0 65.5 19z" />
    <glyph glyph-name="colon" unicode=":" horiz-adv-x="246" 
d="M155 373q13 -13 13 -31t-13 -31.5t-32 -13.5t-32 13.5t-13 31.5t13 31t32 13t32 -13zM155 66q13 -13 13 -31q0 -19 -13 -32t-32 -13t-32 13t-13 32q0 18 13 31t32 13t32 -13z" />
    <glyph glyph-name="semicolon" unicode=";" horiz-adv-x="246" 
d="M175 373q13 -13 13 -31t-13 -31.5t-32 -13.5t-32 13.5t-13 31.5t13 31t32 13t32 -13zM91 -138l-43 18l74 208l60 -21z" />
    <glyph glyph-name="less" unicode="&#x3c;" 
d="M146 205l294 -126v-68l-387 166v56l387 165v-68z" />
    <glyph glyph-name="equal" unicode="=" 
d="M440 236h-387v62h387v-62zM440 111h-387v63h387v-63z" />
    <glyph glyph-name="greater" unicode="&#x3e;" 
d="M440 233v-56l-387 -166v68l294 126l-294 125v68z" />
    <glyph glyph-name="question" unicode="?" horiz-adv-x="390" 
d="M309.5 192.5q-16.5 -31.5 -47 -50t-68.5 -18.5q-55 0 -92.5 37.5t-37.5 92.5q0 50 29 78t81 45q6 2 38 11.5t47.5 29.5t15.5 51q0 37 -23 60t-59 23q-34 0 -56.5 -23t-22.5 -56q0 -17 5 -39h-66l-3 43q0 40 20 71.5t53.5 48.5t73.5 17t73 -19t52 -52t19 -73
q0 -31 -11 -59.5t-32 -48.5q-18 -16 -43 -25.5t-64 -20.5q-29 -9 -45 -23.5t-16 -42.5q0 -27 19 -45.5t46 -18.5q32 0 48.5 22t16.5 54h65q1 -38 -15.5 -69.5zM225 66q13 -13 13 -31q0 -19 -13 -32t-31 -13q-19 0 -32 13t-13 32q0 18 13 31t32 13q18 0 31 -13z" />
    <glyph glyph-name="at" unicode="@" horiz-adv-x="640" 
d="M490 453l-40 -204q-1 -6 -3.5 -20t-2.5 -23q0 -25 18 -25t39 22.5t36 58.5t17 72q4 68 -24.5 118.5t-80 77t-117.5 26.5q-70 0 -126 -33t-88 -91t-32 -130q0 -75 34.5 -133t94 -90t131.5 -32q101 0 152 37l56 -41q-49 -25 -98.5 -39t-116.5 -14q-85 0 -156 40.5
t-112.5 112t-41.5 159.5q0 87 40.5 158.5t110.5 112.5t154 41q112 0 188 -69q43 -37 66.5 -83t23.5 -100q0 -50 -13 -93.5t-37 -74.5q-26 -35 -57 -52t-61 -17q-19 0 -31.5 12.5t-16.5 36.5q-47 -49 -109 -49q-35 0 -66 19.5t-49.5 53.5t-18.5 73q0 49 20.5 92.5t57.5 70
t85 26.5q32 0 57.5 -13t48.5 -43l12 49h56zM231.5 207.5q22.5 -26.5 63.5 -26.5q49 0 75 34t32 83q1 6 1 18q0 41 -22.5 65.5t-59.5 24.5q-31 0 -57 -19t-40.5 -49t-14.5 -61q0 -43 22.5 -69.5z" />
    <glyph glyph-name="A" unicode="A" horiz-adv-x="559" 
d="M78 0h-73l278 632l271 -632h-74l-71 171h-258zM178 234h204l-100 241z" />
    <glyph glyph-name="B" unicode="B" horiz-adv-x="454" 
d="M160 603q91 0 146.5 -38.5t55.5 -124.5q0 -77 -60 -118q53 -12 84 -55.5t31 -98.5q0 -85 -60 -126.5t-156 -41.5h-140v603h99zM154 338q45 0 74.5 6.5t47.5 29t18 66.5q0 43 -17 65t-46 29t-77 7h-26v-203h26zM195 62q155 0 155 111q0 63 -46.5 85t-117.5 22h-58v-218h67
z" />
    <glyph glyph-name="C" unicode="C" horiz-adv-x="574" 
d="M436.5 530q-48.5 21 -99.5 21q-66 0 -122 -34.5t-88.5 -92t-32.5 -122.5q0 -66 33 -123.5t89 -92t122 -34.5q50 0 98 21.5t85 58.5v-83q-39 -29 -85.5 -44t-94.5 -15q-84 0 -156.5 41.5t-115.5 112.5t-43 155q0 85 42.5 157.5t115 115t157.5 42.5q99 0 180 -60v-83
q-36 38 -84.5 59z" />
    <glyph glyph-name="D" unicode="D" horiz-adv-x="542" 
d="M174 603q76 0 131 -15t105 -58t75 -102t25 -127q0 -67 -24.5 -124t-74.5 -101q-51 -45 -105.5 -60.5t-132.5 -15.5h-112v603h113zM283.5 75.5q45.5 13.5 83.5 49.5q37 34 56 79.5t19 97.5t-20 99.5t-58 80.5q-38 34 -82.5 46.5t-104.5 12.5h-49v-479h49q61 0 106.5 13.5z
" />
    <glyph glyph-name="E" unicode="E" horiz-adv-x="427" 
d="M374 603v-62h-246v-179h238v-63h-238v-237h246v-62h-313v603h313z" />
    <glyph glyph-name="F" unicode="F" horiz-adv-x="382" 
d="M128 362h201v-63h-201v-299h-67v603h274v-62h-207v-179z" />
    <glyph glyph-name="G" unicode="G" horiz-adv-x="656" 
d="M610 184.5q-13 -49.5 -51 -94.5q-41 -48 -100 -74t-123 -26q-84 0 -155 42t-113 113t-42 155q0 85 42 157t114 114.5t158 42.5q154 0 255 -131l-49 -45q-80 113 -207 113q-67 0 -123.5 -34.5t-89.5 -92.5t-33 -125q0 -48 18 -92t52 -78t79.5 -55.5t91.5 -21.5
q53 0 103 24.5t81.5 67.5t31.5 97h-180v62h252q1 -69 -12 -118.5z" />
    <glyph glyph-name="H" unicode="H" horiz-adv-x="571" 
d="M440 603h67v-603h-67v296h-309v-296h-67v603h67v-245h309v245z" />
    <glyph glyph-name="I" unicode="I" horiz-adv-x="191" 
d="M62 0v603h68v-603h-68z" />
    <glyph glyph-name="J" unicode="J" horiz-adv-x="251" 
d="M184 45.5q-5 -31.5 -26 -58.5q-18 -24 -45 -36.5t-59 -12.5q-52 0 -107 44l38 52q18 -17 34 -25.5t37 -8.5q43 0 54.5 35.5t11.5 90.5v477h67v-477q0 -49 -5 -80.5z" />
    <glyph glyph-name="K" unicode="K" horiz-adv-x="489" 
d="M475 603l-283 -281l293 -322h-93l-247 277l-17 -17v-260h-67v603h67v-258l257 258h90z" />
    <glyph glyph-name="L" unicode="L" horiz-adv-x="300" 
d="M294 62v-62h-233v603h67v-541h166z" />
    <glyph glyph-name="M" unicode="M" horiz-adv-x="717" 
d="M358 131l220 507l123 -638h-69l-78 408h-1l-195 -433l-193 433h-2l-77 -408h-69l122 638z" />
    <glyph glyph-name="N" unicode="N" horiz-adv-x="667" 
d="M535 136v467h67v-630l-470 492v-465h-67v629z" />
    <glyph glyph-name="O" unicode="O" horiz-adv-x="690" 
d="M502 572q72 -42 114.5 -114t42.5 -157t-42.5 -156.5t-114.5 -113t-157 -41.5t-157.5 41.5t-115 113t-42.5 156.5t42.5 157t115 114t157.5 42t157 -42zM220.5 517.5q-56.5 -33.5 -89.5 -91t-33 -124.5t33 -124.5t90 -91.5t124 -34t124 34t90 91.5t33 124.5t-33 124.5
t-89.5 91t-124.5 33.5t-124.5 -33.5z" />
    <glyph glyph-name="P" unicode="P" horiz-adv-x="402" 
d="M61 0v603h99q51 0 86 -5.5t64 -26.5q32 -23 50 -59.5t18 -77.5q0 -38 -15 -72.5t-43 -57.5t-63.5 -31.5t-79.5 -8.5h-49v-264h-67zM173 326q137 0 137 109q0 46 -21.5 69.5t-54.5 30t-81 6.5h-25v-215h45z" />
    <glyph glyph-name="Q" unicode="Q" horiz-adv-x="690" 
d="M441 5.5q-49 -15.5 -96 -15.5q-85 0 -157.5 41.5t-115 113t-42.5 156.5t42.5 157t115 114t157.5 42t157.5 -42.5t114.5 -115t42 -157.5q0 -62 -21.5 -114t-65.5 -99l90 -92h-85l-51 55q-36 -28 -85 -43.5zM592 302q0 68 -33 125t-89.5 90.5t-124.5 33.5t-124.5 -33.5
t-89.5 -91t-33 -124.5t33 -124.5t90 -91.5t124 -34q34 0 70 12t64 33l-145 146h88l104 -109q66 72 66 168z" />
    <glyph glyph-name="R" unicode="R" horiz-adv-x="434" 
d="M61 0v603h87q100 0 160.5 -36t60.5 -130q0 -70 -41 -115.5t-110 -51.5l192 -270h-83l-182 265h-17v-265h-67zM149 324q70 0 111.5 22t41.5 86q0 47 -20.5 70.5t-53 31t-80.5 7.5h-20v-217h21z" />
    <glyph glyph-name="S" unicode="S" horiz-adv-x="447" 
d="M291 535q-24 16 -61 16q-41 0 -70.5 -26.5t-29.5 -66.5q0 -34 25 -54t70 -41l40 -17q71 -32 108 -68.5t37 -101.5q0 -52 -25.5 -94.5t-69 -67t-95.5 -24.5q-72 0 -123 42.5t-65 113.5l66 18q6 -48 39.5 -80t80.5 -32q32 0 61 15.5t46 42.5t17 60t-15 54.5t-36.5 34.5
t-59.5 31l-37 16q-64 29 -97.5 62.5t-33.5 91.5q0 46 23 81t62 54t84 19q50 0 91 -25t65 -69l-54 -34q-19 33 -43 49z" />
    <glyph glyph-name="T" unicode="T" horiz-adv-x="376" 
d="M154 0v541h-146v62h360v-62h-147v-541h-67z" />
    <glyph glyph-name="U" unicode="U" horiz-adv-x="548" 
d="M130.5 165.5q4.5 -30.5 22.5 -55.5q19 -27 53 -42.5t68 -15.5t66 14.5t53 39.5t25 54.5t4 83.5v359h68v-377q0 -58 -10 -96t-43 -72q-31 -33 -74 -50.5t-89 -17.5q-43 0 -84.5 16t-71.5 45q-36 35 -47.5 75.5t-11.5 99.5v377h67v-359q0 -48 4.5 -78.5z" />
    <glyph glyph-name="V" unicode="V" horiz-adv-x="499" 
d="M422 603h72l-244 -639l-245 639h73l172 -460z" />
    <glyph glyph-name="W" unicode="W" horiz-adv-x="873" 
d="M437 634l195 -483l158 452h73l-231 -634l-195 485l-195 -485l-232 634h73l159 -452z" />
    <glyph glyph-name="X" unicode="X" horiz-adv-x="451" 
d="M102 603l124 -227l123 227h77l-164 -291l179 -312h-77l-138 248l-139 -248h-77l179 312l-163 291h76z" />
    <glyph glyph-name="Y" unicode="Y" horiz-adv-x="474" 
d="M84 603l154 -269l153 269h78l-198 -344v-259h-67v259l-198 344h78z" />
    <glyph glyph-name="Z" unicode="Z" horiz-adv-x="469" 
d="M443 0h-432l329 541h-287v62h399l-330 -541h321v-62z" />
    <glyph glyph-name="bracketleft" unicode="[" horiz-adv-x="252" 
d="M235 -133v-59h-152v822h152v-59h-86v-704h86z" />
    <glyph glyph-name="backslash" unicode="\" horiz-adv-x="456" 
d="M442 0l-52 -24l-376 660l53 24z" />
    <glyph glyph-name="bracketright" unicode="]" horiz-adv-x="252" 
d="M17 571v59h152v-822h-152v59h86v704h-86z" />
    <glyph glyph-name="asciicircum" unicode="^" 
d="M275 603l165 -345h-71l-123 262l-124 -262h-69l165 345h57z" />
    <glyph glyph-name="underscore" unicode="_" horiz-adv-x="400" 
d="M0 -100v40h400v-40h-400z" />
    <glyph glyph-name="grave" unicode="`" horiz-adv-x="286" 
d="M225 464l-40 -22l-123 123l68 30z" />
    <glyph glyph-name="a" unicode="a" horiz-adv-x="462" 
d="M340 0v52h-2q-47 -62 -129 -62q-54 0 -95 27t-63 72t-22 98q0 54 22 99.5t63 72.5t96 27q38 0 71.5 -17t56.5 -47h2v54h64v-376h-64zM153 308q-28 -19 -43.5 -50t-15.5 -66q0 -59 33.5 -101t90.5 -42q59 0 92 41t33 101q0 58 -34 97t-92 39q-36 0 -64 -19z" />
    <glyph glyph-name="b" unicode="b" horiz-adv-x="462" 
d="M122 660v-338h1q23 30 57 47t72 17q54 0 95.5 -27t63.5 -72.5t22 -98.5t-22.5 -98.5t-63.5 -72.5t-94 -27q-40 0 -73.5 16t-56.5 46h-1v-52h-64v660h64zM177 308q-28 -19 -43.5 -50t-15.5 -66q0 -59 33.5 -101t90.5 -42q59 0 92 41t33 101q0 58 -34 97t-92 39
q-36 0 -64 -19z" />
    <glyph glyph-name="c" unicode="c" horiz-adv-x="381" 
d="M338 264q-48 63 -116 63q-38 0 -68.5 -19t-47.5 -51t-17 -69q0 -57 36 -98t93 -41q39 0 69 16.5t54 48.5h1v-86q-55 -38 -119 -38q-56 0 -101.5 25.5t-72 71t-26.5 101.5q0 55 27 100.5t73.5 71.5t100.5 26q64 0 116 -37v-85h-2z" />
    <glyph glyph-name="d" unicode="d" horiz-adv-x="462" 
d="M338 52q-23 -30 -56.5 -46t-72.5 -16q-54 0 -95 27t-63 72t-22 98q0 54 22 99.5t63 72.5t96 27q38 0 72 -17t56 -47h2v338h64v-660h-64v52h-2zM153 308q-28 -19 -43.5 -50t-15.5 -66q0 -59 33.5 -101t90.5 -42q59 0 92 41t33 101q0 58 -34 97t-92 39q-36 0 -64 -19z" />
    <glyph glyph-name="e" unicode="e" horiz-adv-x="415" 
d="M128 85q34 -36 88 -36q72 0 114 77l55 -31q-27 -51 -72 -78t-102 -27q-55 0 -96.5 25.5t-64.5 69.5t-23 98q0 56 21.5 102.5t63 73.5t98.5 27q58 0 99.5 -29t61.5 -77.5t17 -105.5h-295q1 -53 35 -89zM282.5 298.5q-31.5 28.5 -72.5 28.5t-74.5 -28.5t-39.5 -69.5h225
q-7 41 -38.5 69.5z" />
    <glyph glyph-name="f" unicode="f" horiz-adv-x="219" 
d="M66 0v317h-35v59h35v150q0 33 3 56t14 41q15 24 40.5 35.5t56.5 11.5q20 0 46 -8v-64q-30 8 -44 8q-25 0 -36 -11t-13.5 -31t-2.5 -61v-127h96v-59h-96v-317h-64z" />
    <glyph glyph-name="g" unicode="g" horiz-adv-x="464" 
d="M393.5 -75q-6.5 -35 -31.5 -68q-26 -33 -64.5 -50t-81.5 -17q-80 0 -131.5 47t-53.5 126h64q1 -51 34.5 -82t85.5 -31q69 0 95 42t26 115v45h-2q-22 -29 -57 -45.5t-73 -16.5q-53 0 -94 27t-63 72t-22 97q0 53 22.5 99t63.5 73.5t95 27.5q39 0 72.5 -16.5t55.5 -47.5h2
v54h64v-358q0 -58 -6.5 -93zM149 308q-28 -19 -43.5 -50t-15.5 -66q0 -59 33.5 -101t90.5 -42q59 0 92 41t33 101q0 58 -34 97t-92 39q-36 0 -64 -19z" />
    <glyph glyph-name="h" unicode="h" horiz-adv-x="422" 
d="M125 332l1 -2q42 56 108 56q72 0 100 -44t28 -119v-223h-64v212q0 37 -5 61t-22.5 39t-52.5 15q-59 0 -76 -40.5t-17 -108.5v-178h-64v660h64v-328z" />
    <glyph glyph-name="i" unicode="i" horiz-adv-x="210" 
d="M137 549.5q13 -13.5 13 -31.5q0 -19 -13 -32.5t-32 -13.5t-32.5 13.5t-13.5 32.5q0 18 13.5 31.5t32.5 13.5t32 -13.5zM73 0v376h64v-376h-64z" />
    <glyph glyph-name="j" unicode="j" horiz-adv-x="210" 
d="M137 549.5q13 -13.5 13 -31.5q0 -19 -13 -32.5t-32 -13.5t-32.5 13.5t-13.5 32.5q0 18 13.5 31.5t32.5 13.5t32 -13.5zM73 -211v587h64v-587h-64z" />
    <glyph glyph-name="k" unicode="k" horiz-adv-x="376" 
d="M258 376h86l-161 -160l191 -216h-84l-152 171l-16 -17v-154h-64v660h64v-423z" />
    <glyph glyph-name="l" unicode="l" horiz-adv-x="182" 
d="M59 0v660h64v-660h-64z" />
    <glyph glyph-name="m" unicode="m" horiz-adv-x="614" 
d="M126 335q15 24 38.5 37.5t52.5 13.5q33 0 61 -16.5t43 -45.5q16 30 46.5 46t66.5 16q66 0 93 -44t27 -113v-229h-64v218q0 49 -13 79t-56 30q-49 0 -65.5 -36t-16.5 -92v-199h-64v214q0 48 -13 80.5t-54 32.5q-50 0 -66.5 -38t-16.5 -95v-194h-64v376h64v-41h1z" />
    <glyph glyph-name="n" unicode="n" horiz-adv-x="422" 
d="M126 330q42 56 108 56q72 0 100 -44t28 -119v-223h-64v212q0 37 -5 61t-22.5 39t-52.5 15q-59 0 -76 -40.5t-17 -108.5v-178h-64v376h64v-46h1z" />
    <glyph glyph-name="o" unicode="o" horiz-adv-x="450" 
d="M125.5 16.5q-45.5 26.5 -72 71.5t-26.5 99q0 55 26.5 100.5t71.5 72t100 26.5q54 0 99 -26.5t71.5 -72t26.5 -100.5q0 -54 -26.5 -99t-71.5 -71.5t-99 -26.5t-99.5 26.5zM129 286.5q-38 -40.5 -38 -98.5q0 -59 38 -99t96 -40t95.5 40t37.5 99q0 58 -37.5 98.5t-95.5 40.5
t-96 -40.5z" />
    <glyph glyph-name="p" unicode="p" horiz-adv-x="462" 
d="M123 322q23 31 57 47.5t73 16.5q53 0 94 -27.5t63.5 -73.5t22.5 -98q0 -54 -22 -99t-63 -71.5t-96 -26.5q-39 0 -72.5 16.5t-56.5 46.5h-1v-264h-64v587h64v-54h1zM177 308q-28 -19 -43.5 -50t-15.5 -66q0 -59 33.5 -101t90.5 -42q59 0 92 41t33 101q0 58 -34 97t-92 39
q-36 0 -64 -19z" />
    <glyph glyph-name="q" unicode="q" horiz-adv-x="462" 
d="M340 -211v264h-2q-22 -30 -56 -46.5t-72 -16.5q-55 0 -96 26.5t-63 71t-22 98.5q0 53 22 99t63 73.5t95 27.5q39 0 72.5 -16.5t56.5 -47.5h2v54h64v-587h-64zM153 308q-28 -19 -43.5 -50t-15.5 -66q0 -59 33.5 -101t90.5 -42q59 0 92 41t33 101q0 58 -34 97t-92 39
q-36 0 -64 -19z" />
    <glyph glyph-name="r" unicode="r" horiz-adv-x="268" 
d="M123 335q20 27 37.5 39t45.5 12q27 0 58 -17l-30 -59q-2 2 -9.5 7t-14.5 7.5t-15 2.5q-46 0 -59.5 -41t-13.5 -98v-188h-64v376h64v-41h1z" />
    <glyph glyph-name="s" unicode="s" horiz-adv-x="319" 
d="M192 316q-14 11 -30 11q-18 0 -32.5 -12t-14.5 -29q0 -21 18 -33t40 -21t29 -12q40 -16 64 -40.5t24 -67.5q0 -53 -37.5 -87.5t-90.5 -34.5q-47 0 -82 25.5t-50 69.5l56 24q14 -30 31 -45t46 -15q26 0 43.5 16t17.5 41t-18 39t-56 31q-31 13 -50 24t-32.5 30.5
t-13.5 49.5q0 46 33 76t79 30q32 0 60 -19.5t40 -49.5l-53 -28q-7 16 -21 27z" />
    <glyph glyph-name="t" unicode="t" horiz-adv-x="192" 
d="M64 0v317h-39v59h39v135h64v-135h67v-59h-67v-317h-64z" />
    <glyph glyph-name="u" unicode="u" horiz-adv-x="410" 
d="M136 79q16 -30 69 -30q52 0 68.5 30t16.5 87v210h64v-217q0 -169 -149 -169t-149 169v217h64v-210q0 -57 16 -87z" />
    <glyph glyph-name="v" unicode="v" horiz-adv-x="370" 
d="M298 376h72l-184 -401l-185 401h73l112 -253z" />
    <glyph glyph-name="w" unicode="w" horiz-adv-x="608" 
d="M303 405l118 -283l112 254h73l-187 -402l-116 280l-116 -280l-185 402h73l111 -254z" />
    <glyph glyph-name="x" unicode="x" horiz-adv-x="398" 
d="M102 376l99 -128l98 128h80l-137 -176l156 -200h-78l-119 153l-120 -153h-80l160 200l-137 176h78z" />
    <glyph glyph-name="y" unicode="y" horiz-adv-x="398" 
d="M73 376l133 -270l121 270h73l-278 -587h-72l121 246l-173 341h75z" />
    <glyph glyph-name="z" unicode="z" horiz-adv-x="415" 
d="M397 0h-389l271 317h-221v59h350l-270 -317h259v-59z" />
    <glyph glyph-name="braceleft" unicode="{" horiz-adv-x="267" 
d="M90 285.5q11 28.5 11 87.5v149q0 30 11.5 55t27.5 39t29 14h58v-59h-32q-20 0 -24.5 -13.5t-4.5 -47.5v-151q0 -59 -20.5 -93t-39.5 -47q18 -11 39 -45.5t21 -95.5v-150q0 -34 4.5 -47.5t24.5 -13.5h32v-59h-58q-13 0 -29 14t-27.5 39t-11.5 55v149q0 59 -11 88t-49 41
v51q38 12 49 40.5z" />
    <glyph glyph-name="bar" unicode="|" horiz-adv-x="456" 
d="M197 -171v800h62v-800h-62z" />
    <glyph glyph-name="braceright" unicode="}" horiz-adv-x="267" 
d="M177 153q-11 -29 -11 -88v-149q0 -30 -11.5 -55t-27.5 -39t-29 -14h-58v59h32q20 0 24.5 13.5t4.5 47.5v150q0 43 12 73.5t26 46.5t23 21q-19 12 -40 46.5t-21 93.5v151q0 34 -4.5 47.5t-24.5 13.5h-32v59h58q13 0 29 -14t27.5 -39t11.5 -55v-149q0 -59 11 -87.5
t49 -40.5v-51q-38 -12 -49 -41z" />
    <glyph glyph-name="asciitilde" unicode="~" 
d="M100 245.5q28 32.5 64 32.5q31 0 87 -36l20 -14q19 -14 33 -22t25 -8q16 0 31.5 22t25.5 56l54 -22q-18 -53 -46 -85.5t-65 -32.5q-30 0 -82 35q-8 5 -27 18t-32.5 19t-23.5 6q-16 0 -30.5 -21t-25.5 -55l-55 22q19 53 47 85.5z" />
    <glyph glyph-name="uni00A0" unicode="&#xa0;" horiz-adv-x="246" 
 />
    <glyph glyph-name="exclamdown" unicode="&#xa1;" horiz-adv-x="270" 
d="M167 373q13 -13 13 -31t-13 -31.5t-32 -13.5t-32 13.5t-13 31.5t13 31t32 13t32 -13zM102 -227v481h66v-481h-66z" />
    <glyph glyph-name="cent" unicode="&#xa2;" 
d="M391 385q-19 24 -43 40.5t-51 20.5v-276q55 8 96 64h1v-85q-50 -34 -97 -38v-89h-53v90q-46 5 -84.5 33t-61 70.5t-22.5 88.5q0 49 21.5 92.5t60 72t86.5 34.5v85h53v-83q52 -5 96 -35v-85h-2zM170.5 395.5q-28.5 -39.5 -28.5 -86.5q0 -49 28 -89t74 -49v273
q-45 -9 -73.5 -48.5z" />
    <glyph glyph-name="sterling" unicode="&#xa3;" 
d="M65 266h80l-15 29l-11 21q-21 40 -31 67t-10 59q0 48 24.5 87.5t65.5 62t89 22.5q51 0 91 -24t62 -65t22 -92l-66 -18q0 58 -26 96.5t-82 38.5q-46 0 -78.5 -31.5t-32.5 -77.5q0 -29 11 -56.5t33 -65.5q20 -36 27 -53h114v-52h-96q6 -24 6 -36q0 -20 -7.5 -43t-19.5 -43
l4 -2q5 -1 29 -10q65 -24 87 -24q24 0 40.5 16.5t32.5 43.5l54 -33q-18 -40 -50 -66.5t-73 -26.5q-22 0 -44.5 6t-52.5 18q-7 2 -26.5 9t-34.5 10.5t-27 3.5q-43 0 -72 -49l-52 35q20 34 50 55.5t66 22.5q26 34 26 74q0 21 -6 39h-101v52z" />
    <glyph glyph-name="currency" unicode="&#xa4;" 
d="M115 394q33 24 63.5 35t67.5 11q38 0 68 -11t64 -35l33 33l29 -29l-32 -32q23 -34 32.5 -63t9.5 -63t-9.5 -63t-32.5 -63l32 -32l-29 -29l-33 33q-34 -24 -64 -35t-68 -11q-37 0 -67.5 11t-63.5 35l-33 -33l-29 29l32 32q-23 34 -33 63t-10 63t10 63t33 63l-32 32l29 29z
M137.5 346.5q-43.5 -40.5 -43.5 -102.5q0 -41 20.5 -76t55 -56t76.5 -21t77 21t55.5 56.5t20.5 75.5q0 62 -44 102.5t-109 42.5q-65 -2 -108.5 -42.5z" />
    <glyph glyph-name="yen" unicode="&#xa5;" 
d="M23 205v51h190l-44 80h-146v51h116l-124 216h78l153 -267l154 267h78l-124 -216h116v-51h-146l-44 -80h190v-51h-190v-205h-67v205h-190z" />
    <glyph glyph-name="brokenbar" unicode="&#xa6;" horiz-adv-x="456" 
d="M197 329v200h62v-200h-62zM197 -71v200h62v-200h-62z" />
    <glyph glyph-name="section" unicode="&#xa7;" horiz-adv-x="474" 
d="M169 -64.5q20 -25.5 61 -25.5q39 0 61 20.5t22 59.5q0 28 -12.5 45.5t-30.5 27t-50 20.5q-8 3 -27.5 11t-35.5 16t-27 17q-48 39 -48 106q0 44 22 79t62 51q-34 17 -52.5 46t-18.5 67q0 41 20.5 72.5t55.5 48.5t75 17q32 0 64.5 -14.5t50.5 -39.5q14 -20 21 -47.5
t8 -55.5h-64q-6 95 -80 95q-37 0 -61 -22t-24 -59q0 -29 15.5 -46.5t34 -25.5t66.5 -25q54 -19 84.5 -49.5t30.5 -93.5q0 -84 -84 -128q36 -19 53 -47.5t17 -69.5q0 -63 -41.5 -100t-106.5 -37q-74 0 -108.5 40t-37.5 114h65q0 -42 20 -67.5zM174.5 296q-25.5 -26 -25.5 -62
q0 -37 25.5 -63t62.5 -26t63 26t26 63q0 36 -26 62t-63 26t-62.5 -26z" />
    <glyph glyph-name="dieresis" unicode="&#xa8;" horiz-adv-x="374" 
d="M138.5 551.5q12.5 -12.5 12.5 -30.5t-12.5 -30.5t-30.5 -12.5t-30.5 12.5t-12.5 30.5t12.5 30.5t30.5 12.5t30.5 -12.5zM296.5 551.5q12.5 -12.5 12.5 -30.5t-12.5 -30.5t-30.5 -12.5t-31 12.5t-13 30.5t13 30.5t31 12.5t30.5 -12.5z" />
    <glyph glyph-name="copyright" unicode="&#xa9;" horiz-adv-x="640" 
d="M162 31.5q-72 41.5 -114 113t-42 157.5q0 85 42 156.5t114 113.5t158 42t158 -42t114 -113.5t42 -156.5q0 -86 -42 -157.5t-114 -113t-158 -41.5t-158 41.5zM452 73q61 35 97.5 96t36.5 133t-36.5 132.5t-97.5 96t-132 35.5t-132 -35.5t-97.5 -96t-36.5 -132.5t36.5 -133
t97.5 -96t132 -35t132 35zM397 417.5q-26 18.5 -66 18.5q-60 0 -92.5 -39t-32.5 -91q0 -57 34.5 -95t92.5 -38q39 0 64 19t33 54h49q-7 -55 -48.5 -88t-97.5 -33q-52 0 -91.5 24t-61.5 64.5t-22 90.5q0 79 47 129.5t127 50.5q56 0 96.5 -31.5t50.5 -86.5h-49q-7 33 -33 51.5
z" />
    <glyph glyph-name="ordfeminine" unicode="&#xaa;" horiz-adv-x="277" 
d="M219 382v31h-1q-32 -38 -84 -38t-84.5 35t-32.5 84q0 50 32 85t85 35q25 0 47 -10.5t37 -28.5h1v32h42v-225h-42zM80.5 554q-22.5 -24 -22.5 -57q0 -35 22 -61t59 -26q39 0 60.5 25t21.5 61q0 35 -22.5 58.5t-59.5 23.5q-36 0 -58.5 -24z" />
    <glyph glyph-name="guillemotleft" unicode="&#xab;" horiz-adv-x="400" 
d="M167 26l-134 166l134 170l43 -33l-108 -137l108 -133zM303 26l-134 166l134 170l43 -33l-108 -137l108 -133z" />
    <glyph glyph-name="logicalnot" unicode="&#xac;" 
d="M53 236v62h387v-216h-62v154h-325z" />
    <glyph glyph-name="uni00AD" unicode="&#xad;" horiz-adv-x="166" 
d="M166 163h-164v59h164v-59z" />
    <glyph glyph-name="registered" unicode="&#xae;" horiz-adv-x="640" 
d="M162 31.5q-72 41.5 -114 113t-42 157.5q0 85 42 156.5t114 113.5t158 42t158 -42t114 -113.5t42 -156.5q0 -86 -42 -157.5t-114 -113t-158 -41.5t-158 41.5zM452 73q61 35 97.5 96t36.5 133t-36.5 132.5t-97.5 96t-132 35.5t-132 -35.5t-97.5 -96t-36.5 -132.5t36.5 -133
t97.5 -96t132 -35t132 35zM411 133l-102 157h-58v-157h-48v341h149q55 0 88.5 -19.5t33.5 -70.5q0 -47 -29.5 -69.5t-78.5 -24.5l103 -157h-58zM341 338q39 0 62 9t23 38q0 41 -84 41h-91v-88h58h32z" />
    <glyph glyph-name="macron" unicode="&#xaf;" horiz-adv-x="399" 
d="M337 491h-274v55h274v-55z" />
    <glyph glyph-name="degree" unicode="&#xb0;" horiz-adv-x="320" 
d="M245 409q-35 -35 -85 -35t-85 35.5t-35 86.5q0 31 16.5 58.5t44 43.5t59.5 16t60 -16.5t44 -44t16 -59.5q0 -50 -35 -85zM217.5 551q-24.5 24 -58.5 24t-57.5 -24t-23.5 -57q0 -34 24 -58t58 -24t58 24t24 58q0 33 -24.5 57z" />
    <glyph glyph-name="plusminus" unicode="&#xb1;" 
d="M278 276h162v-62h-162v-123h-63v123h-162v62h162v122h63v-122zM440 62v-62h-387v62h387z" />
    <glyph glyph-name="uni00B2" unicode="&#xb2;" horiz-adv-x="295" 
d="M274 246h-253l183 200q22 23 22 60q0 30 -20.5 48t-52.5 18q-35 0 -55 -19t-20 -51h-48q2 48 36 80t85 32q53 0 88 -30t35 -78q0 -21 -6 -41.5t-19 -34.5l-132 -143h157v-41z" />
    <glyph glyph-name="uni00B3" unicode="&#xb3;" horiz-adv-x="295" 
d="M192.5 472q20.5 15 20.5 41q0 27 -19.5 43t-44.5 16q-26 0 -41.5 -14t-18.5 -40h-48q5 44 33 70t76 26t79.5 -28t31.5 -72q0 -24 -13.5 -46t-37.5 -33q28 -11 42 -35t14 -54q0 -50 -33.5 -78.5t-87.5 -28.5q-48 0 -81.5 28t-34.5 72h48q0 -27 19.5 -42.5t49.5 -15.5
q32 0 52 19t20 49q0 31 -21.5 49t-56.5 17v42q32 0 52.5 15z" />
    <glyph glyph-name="acute" unicode="&#xb4;" horiz-adv-x="286" 
d="M102 442l-40 22l96 131l67 -30z" />
    <glyph glyph-name="uni00B5" unicode="&#xb5;" horiz-adv-x="410" 
d="M136 79q16 -30 69 -30q52 0 68.5 30t16.5 87v210h64v-217q0 -169 -149 -169q-24 0 -43 7t-42 30v-238h-64v587h64v-210q0 -57 16 -87z" />
    <glyph glyph-name="paragraph" unicode="&#xb6;" horiz-adv-x="474" 
d="M381 551v-673h-52v673h-65v-673h-52v348q-69 0 -114 46t-51 126q-4 48 18 96t63 78.5t91 30.5h208v-52h-46z" />
    <glyph glyph-name="periodcentered" unicode="&#xb7;" horiz-adv-x="246" 
d="M155 236q13 -13 13 -31q0 -19 -13 -32.5t-32 -13.5t-32 13.5t-13 32.5q0 18 13 31t32 13t32 -13z" />
    <glyph glyph-name="cedilla" unicode="&#xb8;" horiz-adv-x="260" 
d="M62 -137l77 119l59 -24l-91 -117z" />
    <glyph glyph-name="uni00B9" unicode="&#xb9;" horiz-adv-x="295" 
d="M114 607h90v-361h-48v320h-65z" />
    <glyph glyph-name="ordmasculine" unicode="&#xba;" horiz-adv-x="270" 
d="M43.5 409.5q-37.5 34.5 -37.5 84.5q0 33 17 60.5t47 43.5t65 16t65 -16t47 -43.5t17 -60.5q0 -50 -37.5 -84.5t-91.5 -34.5t-91.5 34.5zM72.5 553.5q-24.5 -24.5 -24.5 -59.5t24.5 -59.5t62.5 -24.5t62.5 24.5t24.5 59.5t-24.5 59.5t-62.5 24.5t-62.5 -24.5z" />
    <glyph glyph-name="guillemotright" unicode="&#xbb;" horiz-adv-x="400" 
d="M54 329l43 33l134 -170l-134 -166l-43 33l108 133zM190 329l43 33l134 -170l-134 -166l-43 33l108 133z" />
    <glyph glyph-name="onequarter" unicode="&#xbc;" horiz-adv-x="739" 
d="M202 -10l-35 19l351 605l36 -20zM103 607h90v-361h-48v320h-65zM659 58h-48v-58h-48v58h-196l243 324h1v-282h48v-42zM562 252l-114 -152h115v152h-1z" />
    <glyph glyph-name="onehalf" unicode="&#xbd;" horiz-adv-x="739" 
d="M166 -10l-35 19l351 605l36 -20zM103 607h90v-361h-48v320h-65zM659 0h-253l183 200q22 25 22 61q0 30 -20.5 47.5t-52.5 17.5q-35 0 -55 -19t-20 -51h-48q2 48 36 80t85 32q53 0 88 -30t35 -77q0 -21 -6 -41.5t-19 -34.5l-132 -143h157v-42z" />
    <glyph glyph-name="threequarters" unicode="&#xbe;" horiz-adv-x="739" 
d="M227.5 472q20.5 15 20.5 41q0 27 -19.5 43t-44.5 16q-26 0 -41.5 -14t-18.5 -40h-48q5 44 33 70t76 26t79.5 -28t31.5 -72q0 -25 -13.5 -46.5t-36.5 -32.5q27 -11 41.5 -35t14.5 -54q0 -50 -34 -78.5t-88 -28.5q-48 0 -81.5 28t-34.5 72h48q0 -27 19.5 -42.5t50.5 -15.5
t51.5 19.5t20.5 48.5q0 31 -22 49t-57 17v42q32 0 52.5 15zM249 -10l-35 19l351 605l35 -20zM675 58h-48v-58h-48v58h-196l243 324h1v-282h48v-42zM578 252l-114 -152h115v152h-1z" />
    <glyph glyph-name="questiondown" unicode="&#xbf;" horiz-adv-x="390" 
d="M229 373q13 -13 13 -31q0 -19 -13 -32t-32 -13t-32 13t-13 32q0 18 13 31t32 13t32 -13zM101 215q37 40 95 40q55 0 92.5 -37.5t37.5 -92.5q0 -50 -28.5 -78t-80.5 -45q-6 -2 -38 -11.5t-48 -29.5t-16 -51q0 -36 23.5 -59.5t59.5 -23.5q33 0 55.5 23t22.5 56q0 17 -5 39
h67l3 -43q0 -40 -20 -71t-53.5 -48t-73.5 -17q-61 0 -102.5 41t-41.5 103q0 30 11 58.5t32 48.5q18 16 42 25t64 21q29 8 45.5 23.5t16.5 43.5q0 27 -19.5 45.5t-46.5 18.5q-32 0 -48.5 -22t-16.5 -55h-64q-2 58 35 98z" />
    <glyph glyph-name="Agrave" unicode="&#xc0;" horiz-adv-x="559" 
d="M330 671l-40 -22l-123 123l67 30zM78 0h-73l278 632l271 -632h-74l-71 171h-258zM178 234h204l-100 241z" />
    <glyph glyph-name="Aacute" unicode="&#xc1;" horiz-adv-x="559" 
d="M271 649l-40 22l95 131l68 -30zM78 0h-73l278 632l271 -632h-74l-71 171h-258zM178 234h204l-100 241z" />
    <glyph glyph-name="Acircumflex" unicode="&#xc2;" horiz-adv-x="559" 
d="M406 690l-47 -36l-80 68l-79 -68l-46 36l125 107zM78 0h-73l278 632l271 -632h-74l-71 171h-258zM178 234h204l-100 241z" />
    <glyph glyph-name="Atilde" unicode="&#xc3;" horiz-adv-x="559" 
d="M175.5 755q19.5 17 46.5 17q26 0 64 -18q6 -3 23 -11t29 -8q15 0 25 11t19 28l38 -31q-11 -28 -34 -46.5t-51 -18.5q-22 0 -60 19q-38 17 -56 17q-15 0 -23.5 -9.5t-16.5 -26.5l-39 31q16 29 35.5 46zM78 0h-73l278 632l271 -632h-74l-71 171h-258zM178 234h204l-100 241
z" />
    <glyph glyph-name="Adieresis" unicode="&#xc4;" horiz-adv-x="559" 
d="M231.5 758.5q12.5 -12.5 12.5 -30.5t-12.5 -30.5t-30.5 -12.5t-30.5 12.5t-12.5 30.5t12.5 30.5t30.5 12.5t30.5 -12.5zM389 758.5q13 -12.5 13 -30.5t-13 -30.5t-31 -12.5t-30.5 12.5t-12.5 30.5t12.5 30.5t30.5 12.5t31 -12.5zM78 0h-73l278 632l271 -632h-74l-71 171
h-258zM178 234h204l-100 241z" />
    <glyph glyph-name="Aring" unicode="&#xc5;" horiz-adv-x="559" 
d="M335.5 782q22.5 -23 22.5 -55t-22.5 -55t-54.5 -23t-55.5 23t-23.5 55t23.5 55t55.5 23t54.5 -23zM253.5 754q-11.5 -11 -11.5 -27t11.5 -27t27.5 -11t26.5 11t10.5 27t-10.5 27t-26.5 11t-27.5 -11zM78 0h-73l278 632l271 -632h-74l-71 171h-258zM178 234h204l-100 241z
" />
    <glyph glyph-name="AE" unicode="&#xc6;" horiz-adv-x="800" 
d="M79 0h-74l269 603h264l28 -62h-244l75 -180h237l28 -63h-238l98 -236h245l27 -62h-315l-71 170h-258zM179 232h202l-99 238z" />
    <glyph glyph-name="Ccedilla" unicode="&#xc7;" horiz-adv-x="574" 
d="M436.5 530q-48.5 21 -99.5 21q-66 0 -122 -34.5t-88.5 -92t-32.5 -122.5q0 -66 33 -123.5t89 -92t122 -34.5q50 0 98 21.5t85 58.5v-83q-39 -29 -85.5 -44t-94.5 -15q-84 0 -156.5 41.5t-115.5 112.5t-43 155q0 85 42.5 157.5t115 115t157.5 42.5q99 0 180 -60v-83
q-36 38 -84.5 59zM219 -137l77 119l59 -24l-91 -117z" />
    <glyph glyph-name="Egrave" unicode="&#xc8;" horiz-adv-x="427" 
d="M275 671l-40 -22l-122 123l67 30zM374 603v-62h-246v-179h238v-63h-238v-237h246v-62h-313v603h313z" />
    <glyph glyph-name="Eacute" unicode="&#xc9;" horiz-adv-x="427" 
d="M205 649l-40 22l95 131l67 -30zM374 603v-62h-246v-179h238v-63h-238v-237h246v-62h-313v603h313z" />
    <glyph glyph-name="Ecircumflex" unicode="&#xca;" horiz-adv-x="427" 
d="M339 690l-46 -36l-80 68l-79 -68l-46 36l125 107zM374 603v-62h-246v-179h238v-63h-238v-237h246v-62h-313v603h313z" />
    <glyph glyph-name="Edieresis" unicode="&#xcb;" horiz-adv-x="427" 
d="M165.5 758.5q12.5 -12.5 12.5 -30.5t-12.5 -30.5t-30.5 -12.5t-30.5 12.5t-12.5 30.5t12.5 30.5t30.5 12.5t30.5 -12.5zM323.5 758.5q12.5 -12.5 12.5 -30.5t-12.5 -30.5t-30.5 -12.5t-30.5 12.5t-12.5 30.5t12.5 30.5t30.5 12.5t30.5 -12.5zM374 603v-62h-246v-179h238
v-63h-238v-237h246v-62h-313v603h313z" />
    <glyph glyph-name="Igrave" unicode="&#xcc;" horiz-adv-x="191" 
d="M157 671l-40 -22l-123 123l68 30zM62 0v603h68v-603h-68z" />
    <glyph glyph-name="Iacute" unicode="&#xcd;" horiz-adv-x="191" 
d="M74 649l-40 22l96 131l67 -30zM62 0v603h68v-603h-68z" />
    <glyph glyph-name="Icircumflex" unicode="&#xce;" horiz-adv-x="191" 
d="M222 690l-47 -36l-80 68l-79 -68l-46 36l125 107zM62 0v603h68v-603h-68z" />
    <glyph glyph-name="Idieresis" unicode="&#xcf;" horiz-adv-x="191" 
d="M47.5 758.5q12.5 -12.5 12.5 -30.5t-12.5 -30.5t-30.5 -12.5t-30.5 12.5t-12.5 30.5t12.5 30.5t30.5 12.5t30.5 -12.5zM205 758.5q13 -12.5 13 -30.5t-13 -30.5t-31 -12.5t-30.5 12.5t-12.5 30.5t12.5 30.5t30.5 12.5t31 -12.5zM62 0v603h68v-603h-68z" />
    <glyph glyph-name="Eth" unicode="&#xd0;" horiz-adv-x="542" 
d="M0 296v58h61v249h113q76 0 131 -15t105 -58t75 -102t25 -127q0 -67 -24.5 -124t-74.5 -101q-51 -45 -105.5 -60.5t-132.5 -15.5h-112v296h-61zM283.5 75.5q45.5 13.5 83.5 49.5q37 34 56 79.5t19 97.5t-20 99.5t-58 80.5q-38 34 -82.5 46.5t-104.5 12.5h-49v-187h107v-58
h-107v-234h49q61 0 106.5 13.5z" />
    <glyph glyph-name="Ntilde" unicode="&#xd1;" horiz-adv-x="667" 
d="M229 755q19 17 46 17t65 -18q7 -3 23.5 -11t27.5 -8q15 0 25 10t20 29l38 -31q-12 -28 -34.5 -46.5t-50.5 -18.5q-22 0 -60 19q-38 17 -56 17q-15 0 -23.5 -9.5t-16.5 -26.5l-39 31q16 29 35 46zM535 136v467h67v-630l-470 492v-465h-67v629z" />
    <glyph glyph-name="Ograve" unicode="&#xd2;" horiz-adv-x="690" 
d="M394 671l-40 -22l-122 123l67 30zM502 572q72 -42 114.5 -114t42.5 -157t-42.5 -156.5t-114.5 -113t-157 -41.5t-157.5 41.5t-115 113t-42.5 156.5t42.5 157t115 114t157.5 42t157 -42zM220.5 517.5q-56.5 -33.5 -89.5 -91t-33 -124.5t33 -124.5t90 -91.5t124 -34t124 34
t90 91.5t33 124.5t-33 124.5t-89.5 91t-124.5 33.5t-124.5 -33.5z" />
    <glyph glyph-name="Oacute" unicode="&#xd3;" horiz-adv-x="690" 
d="M336 649l-40 22l95 131l67 -30zM502 572q72 -42 114.5 -114t42.5 -157t-42.5 -156.5t-114.5 -113t-157 -41.5t-157.5 41.5t-115 113t-42.5 156.5t42.5 157t115 114t157.5 42t157 -42zM220.5 517.5q-56.5 -33.5 -89.5 -91t-33 -124.5t33 -124.5t90 -91.5t124 -34t124 34
t90 91.5t33 124.5t-33 124.5t-89.5 91t-124.5 33.5t-124.5 -33.5z" />
    <glyph glyph-name="Ocircumflex" unicode="&#xd4;" horiz-adv-x="690" 
d="M470 690l-46 -36l-80 68l-79 -68l-46 36l125 107zM502 572q72 -42 114.5 -114t42.5 -157t-42.5 -156.5t-114.5 -113t-157 -41.5t-157.5 41.5t-115 113t-42.5 156.5t42.5 157t115 114t157.5 42t157 -42zM220.5 517.5q-56.5 -33.5 -89.5 -91t-33 -124.5t33 -124.5t90 -91.5
t124 -34t124 34t90 91.5t33 124.5t-33 124.5t-89.5 91t-124.5 33.5t-124.5 -33.5z" />
    <glyph glyph-name="Otilde" unicode="&#xd5;" horiz-adv-x="690" 
d="M240 755q19 17 46 17t65 -18q7 -3 23.5 -11t27.5 -8q15 0 25.5 11t19.5 28l38 -31q-12 -28 -34.5 -46.5t-50.5 -18.5q-22 0 -60 19q-38 17 -56 17q-15 0 -23.5 -9.5t-16.5 -26.5l-39 31q16 29 35 46zM502 572q72 -42 114.5 -114t42.5 -157t-42.5 -156.5t-114.5 -113
t-157 -41.5t-157.5 41.5t-115 113t-42.5 156.5t42.5 157t115 114t157.5 42t157 -42zM220.5 517.5q-56.5 -33.5 -89.5 -91t-33 -124.5t33 -124.5t90 -91.5t124 -34t124 34t90 91.5t33 124.5t-33 124.5t-89.5 91t-124.5 33.5t-124.5 -33.5z" />
    <glyph glyph-name="Odieresis" unicode="&#xd6;" horiz-adv-x="690" 
d="M297 758.5q13 -12.5 13 -30.5t-13 -30.5t-31 -12.5t-30.5 12.5t-12.5 30.5t12.5 30.5t30.5 12.5t31 -12.5zM454.5 758.5q12.5 -12.5 12.5 -30.5t-12.5 -30.5t-30.5 -12.5t-30.5 12.5t-12.5 30.5t12.5 30.5t30.5 12.5t30.5 -12.5zM502 572q72 -42 114.5 -114t42.5 -157
t-42.5 -156.5t-114.5 -113t-157 -41.5t-157.5 41.5t-115 113t-42.5 156.5t42.5 157t115 114t157.5 42t157 -42zM220.5 517.5q-56.5 -33.5 -89.5 -91t-33 -124.5t33 -124.5t90 -91.5t124 -34t124 34t90 91.5t33 124.5t-33 124.5t-89.5 91t-124.5 33.5t-124.5 -33.5z" />
    <glyph glyph-name="multiply" unicode="&#xd7;" 
d="M246 249l149 149l45 -44l-150 -149l150 -150l-45 -44l-149 150l-149 -150l-44 44l149 150l-149 149l44 44z" />
    <glyph glyph-name="Oslash" unicode="&#xd8;" horiz-adv-x="690" 
d="M49.5 192.5q-19.5 51.5 -19.5 108.5q0 85 42.5 157t115 114t157.5 42q56 0 107.5 -19t93.5 -54l73 73l37 -36l-74 -73q37 -42 57 -94.5t20 -109.5q0 -85 -42.5 -156.5t-114.5 -113t-157 -41.5q-57 0 -109.5 19.5t-94.5 54.5l-72 -72l-35 38l71 71q-36 40 -55.5 91.5z
M429 536.5q-40 14.5 -84 14.5q-68 0 -124.5 -33.5t-89.5 -91t-33 -124.5q0 -86 53 -155l350 349q-32 26 -72 40.5zM260.5 67q40.5 -15 84.5 -15q67 0 124 34t90 91.5t33 124.5q0 88 -55 157l-350 -349q33 -28 73.5 -43z" />
    <glyph glyph-name="Ugrave" unicode="&#xd9;" horiz-adv-x="548" 
d="M324 671l-40 -22l-122 123l67 30zM130.5 165.5q4.5 -30.5 22.5 -55.5q19 -27 53 -42.5t68 -15.5t66 14.5t53 39.5t25 54.5t4 83.5v359h68v-377q0 -58 -10 -96t-43 -72q-31 -33 -74 -50.5t-89 -17.5q-43 0 -84.5 16t-71.5 45q-36 35 -47.5 75.5t-11.5 99.5v377h67v-359
q0 -48 4.5 -78.5z" />
    <glyph glyph-name="Uacute" unicode="&#xda;" horiz-adv-x="548" 
d="M266 649l-40 22l95 131l67 -30zM130.5 165.5q4.5 -30.5 22.5 -55.5q19 -27 53 -42.5t68 -15.5t66 14.5t53 39.5t25 54.5t4 83.5v359h68v-377q0 -58 -10 -96t-43 -72q-31 -33 -74 -50.5t-89 -17.5q-43 0 -84.5 16t-71.5 45q-36 35 -47.5 75.5t-11.5 99.5v377h67v-359
q0 -48 4.5 -78.5z" />
    <glyph glyph-name="Ucircumflex" unicode="&#xdb;" horiz-adv-x="548" 
d="M400 690l-46 -36l-80 68l-80 -68l-45 36l125 107zM130.5 165.5q4.5 -30.5 22.5 -55.5q19 -27 53 -42.5t68 -15.5t66 14.5t53 39.5t25 54.5t4 83.5v359h68v-377q0 -58 -10 -96t-43 -72q-31 -33 -74 -50.5t-89 -17.5q-43 0 -84.5 16t-71.5 45q-36 35 -47.5 75.5t-11.5 99.5
v377h67v-359q0 -48 4.5 -78.5z" />
    <glyph glyph-name="Udieresis" unicode="&#xdc;" horiz-adv-x="548" 
d="M225.5 758.5q12.5 -12.5 12.5 -30.5t-12.5 -30.5t-30.5 -12.5t-30.5 12.5t-12.5 30.5t12.5 30.5t30.5 12.5t30.5 -12.5zM383.5 758.5q12.5 -12.5 12.5 -30.5t-12.5 -30.5t-30.5 -12.5t-30.5 12.5t-12.5 30.5t12.5 30.5t30.5 12.5t30.5 -12.5zM130.5 165.5
q4.5 -30.5 22.5 -55.5q19 -27 53 -42.5t68 -15.5t66 14.5t53 39.5t25 54.5t4 83.5v359h68v-377q0 -58 -10 -96t-43 -72q-31 -33 -74 -50.5t-89 -17.5q-43 0 -84.5 16t-71.5 45q-36 35 -47.5 75.5t-11.5 99.5v377h67v-359q0 -48 4.5 -78.5z" />
    <glyph glyph-name="Yacute" unicode="&#xdd;" horiz-adv-x="474" 
d="M245 649l-40 22l95 131l67 -30zM84 603l154 -269l153 269h78l-198 -344v-259h-67v259l-198 344h78z" />
    <glyph glyph-name="Thorn" unicode="&#xde;" horiz-adv-x="402" 
d="M61 0v603h67v-112h32q51 0 86 -5.5t64 -26.5q32 -23 50 -59.5t18 -77.5q0 -38 -15 -72.5t-43 -57.5t-63.5 -31.5t-79.5 -8.5h-49v-152h-67zM173 214q137 0 137 109q0 46 -21.5 69.5t-54.5 30t-81 6.5h-25v-215h45z" />
    <glyph glyph-name="germandbls" unicode="&#xdf;" horiz-adv-x="462" 
d="M22 317v59h36v115q0 39 6.5 69.5t24.5 53.5q21 28 55.5 42t71.5 14q43 0 78.5 -19t56 -53.5t20.5 -77.5q0 -37 -17.5 -69t-49.5 -48q58 -20 93.5 -75t35.5 -118q0 -60 -32 -110.5t-84.5 -80t-113.5 -29.5v59q45 2 82.5 24t59.5 58.5t22 81.5q0 34 -15 65.5t-42 52.5
q-39 30 -107 35v60q45 -1 74.5 25.5t29.5 71.5q0 39 -26 63.5t-66 24.5q-28 0 -51 -12t-32 -36q-7 -18 -8.5 -41t-1.5 -60v-462h-64v317h-36z" />
    <glyph glyph-name="agrave" unicode="&#xe0;" horiz-adv-x="462" 
d="M281 464l-40 -22l-123 123l68 30zM340 0v52h-2q-47 -62 -129 -62q-54 0 -95 27t-63 72t-22 98q0 54 22 99.5t63 72.5t96 27q38 0 71.5 -17t56.5 -47h2v54h64v-376h-64zM153 308q-28 -19 -43.5 -50t-15.5 -66q0 -59 33.5 -101t90.5 -42q59 0 92 41t33 101q0 58 -34 97
t-92 39q-36 0 -64 -19z" />
    <glyph glyph-name="aacute" unicode="&#xe1;" horiz-adv-x="462" 
d="M222 442l-40 22l96 131l67 -30zM340 0v52h-2q-47 -62 -129 -62q-54 0 -95 27t-63 72t-22 98q0 54 22 99.5t63 72.5t96 27q38 0 71.5 -17t56.5 -47h2v54h64v-376h-64zM153 308q-28 -19 -43.5 -50t-15.5 -66q0 -59 33.5 -101t90.5 -42q59 0 92 41t33 101q0 58 -34 97
t-92 39q-36 0 -64 -19z" />
    <glyph glyph-name="acircumflex" unicode="&#xe2;" horiz-adv-x="462" 
d="M357 483l-47 -36l-80 68l-79 -68l-45 36l124 107zM340 0v52h-2q-47 -62 -129 -62q-54 0 -95 27t-63 72t-22 98q0 54 22 99.5t63 72.5t96 27q38 0 71.5 -17t56.5 -47h2v54h64v-376h-64zM153 308q-28 -19 -43.5 -50t-15.5 -66q0 -59 33.5 -101t90.5 -42q59 0 92 41t33 101
q0 58 -34 97t-92 39q-36 0 -64 -19z" />
    <glyph glyph-name="atilde" unicode="&#xe3;" horiz-adv-x="462" 
d="M127.5 548.5q18.5 16.5 45.5 16.5t65 -19q8 -3 24 -10.5t27 -7.5q15 0 25 10t20 28l37 -30q-11 -28 -33.5 -46.5t-51.5 -18.5q-22 0 -60 19q-4 2 -23 9.5t-33 7.5q-15 0 -23.5 -10t-16.5 -27l-39 32q18 30 36.5 46.5zM340 0v52h-2q-47 -62 -129 -62q-54 0 -95 27t-63 72
t-22 98q0 54 22 99.5t63 72.5t96 27q38 0 71.5 -17t56.5 -47h2v54h64v-376h-64zM153 308q-28 -19 -43.5 -50t-15.5 -66q0 -59 33.5 -101t90.5 -42q59 0 92 41t33 101q0 58 -34 97t-92 39q-36 0 -64 -19z" />
    <glyph glyph-name="adieresis" unicode="&#xe4;" horiz-adv-x="462" 
d="M182.5 551.5q12.5 -12.5 12.5 -30.5t-12.5 -30.5t-30.5 -12.5t-30.5 12.5t-12.5 30.5t12.5 30.5t30.5 12.5t30.5 -12.5zM340.5 551.5q12.5 -12.5 12.5 -30.5t-12.5 -30.5t-30.5 -12.5t-31 12.5t-13 30.5t13 30.5t31 12.5t30.5 -12.5zM340 0v52h-2q-47 -62 -129 -62
q-54 0 -95 27t-63 72t-22 98q0 54 22 99.5t63 72.5t96 27q38 0 71.5 -17t56.5 -47h2v54h64v-376h-64zM153 308q-28 -19 -43.5 -50t-15.5 -66q0 -59 33.5 -101t90.5 -42q59 0 92 41t33 101q0 58 -34 97t-92 39q-36 0 -64 -19z" />
    <glyph glyph-name="aring" unicode="&#xe5;" horiz-adv-x="462" 
d="M287 575q23 -23 23 -55t-23 -55t-55 -23t-55 23t-23 55t23 55t55 23t55 -23zM205 547q-11 -11 -11 -27t11 -27t27 -11t27 11t11 27t-11 27t-27 11t-27 -11zM340 0v52h-2q-47 -62 -129 -62q-54 0 -95 27t-63 72t-22 98q0 54 22 99.5t63 72.5t96 27q38 0 71.5 -17t56.5 -47
h2v54h64v-376h-64zM153 308q-28 -19 -43.5 -50t-15.5 -66q0 -59 33.5 -101t90.5 -42q59 0 92 41t33 101q0 58 -34 97t-92 39q-36 0 -64 -19z" />
    <glyph glyph-name="ae" unicode="&#xe6;" horiz-adv-x="674" 
d="M386.5 85q34.5 -36 87.5 -36q71 0 115 77l54 -31q-27 -51 -71.5 -78t-101.5 -27q-44 0 -82 19t-62 55q-23 -39 -58 -56.5t-83 -17.5q-65 0 -113.5 30t-48.5 90q0 61 47 93t110 32q32 0 57 -7.5t50 -24.5q-1 60 -25.5 92t-82.5 32q-45 0 -115 -24v61q36 11 63.5 16.5
t55.5 5.5q45 0 83.5 -19.5t55.5 -57.5q22 36 62.5 56.5t83.5 20.5q58 0 99.5 -29t62 -77.5t17.5 -105.5h-296q1 -53 35.5 -89zM544.5 298.5q-31.5 28.5 -72.5 28.5t-74.5 -28.5t-39.5 -69.5h224q-6 41 -37.5 69.5zM116.5 161.5q-29.5 -16.5 -29.5 -49.5t29 -48t66 -15
q39 0 70 15.5t31 50.5q0 33 -32 48t-69 15q-36 0 -65.5 -16.5z" />
    <glyph glyph-name="ccedilla" unicode="&#xe7;" horiz-adv-x="381" 
d="M338 264q-48 63 -116 63q-38 0 -68.5 -19t-47.5 -51t-17 -69q0 -57 36 -98t93 -41q39 0 69 16.5t54 48.5h1v-86q-55 -38 -119 -38q-56 0 -101.5 25.5t-72 71t-26.5 101.5q0 55 27 100.5t73.5 71.5t100.5 26q64 0 116 -37v-85h-2zM123 -137l77 119l59 -24l-91 -117z" />
    <glyph glyph-name="egrave" unicode="&#xe8;" horiz-adv-x="415" 
d="M258 464l-40 -22l-123 123l67 30zM128 85q34 -36 88 -36q72 0 114 77l55 -31q-27 -51 -72 -78t-102 -27q-55 0 -96.5 25.5t-64.5 69.5t-23 98q0 56 21.5 102.5t63 73.5t98.5 27q58 0 99.5 -29t61.5 -77.5t17 -105.5h-295q1 -53 35 -89zM282.5 298.5
q-31.5 28.5 -72.5 28.5t-74.5 -28.5t-39.5 -69.5h225q-7 41 -38.5 69.5z" />
    <glyph glyph-name="eacute" unicode="&#xe9;" horiz-adv-x="415" 
d="M199 442l-40 22l95 131l68 -30zM128 85q34 -36 88 -36q72 0 114 77l55 -31q-27 -51 -72 -78t-102 -27q-55 0 -96.5 25.5t-64.5 69.5t-23 98q0 56 21.5 102.5t63 73.5t98.5 27q58 0 99.5 -29t61.5 -77.5t17 -105.5h-295q1 -53 35 -89zM282.5 298.5q-31.5 28.5 -72.5 28.5
t-74.5 -28.5t-39.5 -69.5h225q-7 41 -38.5 69.5z" />
    <glyph glyph-name="ecircumflex" unicode="&#xea;" horiz-adv-x="415" 
d="M334 483l-47 -36l-80 68l-79 -68l-46 36l125 107zM128 85q34 -36 88 -36q72 0 114 77l55 -31q-27 -51 -72 -78t-102 -27q-55 0 -96.5 25.5t-64.5 69.5t-23 98q0 56 21.5 102.5t63 73.5t98.5 27q58 0 99.5 -29t61.5 -77.5t17 -105.5h-295q1 -53 35 -89zM282.5 298.5
q-31.5 28.5 -72.5 28.5t-74.5 -28.5t-39.5 -69.5h225q-7 41 -38.5 69.5z" />
    <glyph glyph-name="edieresis" unicode="&#xeb;" horiz-adv-x="415" 
d="M159.5 551.5q12.5 -12.5 12.5 -30.5t-12.5 -30.5t-30.5 -12.5t-30.5 12.5t-12.5 30.5t12.5 30.5t30.5 12.5t30.5 -12.5zM317 551.5q13 -12.5 13 -30.5t-13 -30.5t-31 -12.5t-30.5 12.5t-12.5 30.5t12.5 30.5t30.5 12.5t31 -12.5zM128 85q34 -36 88 -36q72 0 114 77
l55 -31q-27 -51 -72 -78t-102 -27q-55 0 -96.5 25.5t-64.5 69.5t-23 98q0 56 21.5 102.5t63 73.5t98.5 27q58 0 99.5 -29t61.5 -77.5t17 -105.5h-295q1 -53 35 -89zM282.5 298.5q-31.5 28.5 -72.5 28.5t-74.5 -28.5t-39.5 -69.5h225q-7 41 -38.5 69.5z" />
    <glyph glyph-name="igrave" unicode="&#xec;" horiz-adv-x="210" 
d="M166 464l-40 -22l-122 123l67 30zM73 0v376h64v-376h-64z" />
    <glyph glyph-name="iacute" unicode="&#xed;" horiz-adv-x="210" 
d="M84 442l-40 22l95 131l67 -30zM73 0v376h64v-376h-64z" />
    <glyph glyph-name="icircumflex" unicode="&#xee;" horiz-adv-x="210" 
d="M230 483l-46 -36l-80 68l-79 -68l-46 36l125 107zM73 0v376h64v-376h-64z" />
    <glyph glyph-name="idieresis" unicode="&#xef;" horiz-adv-x="210" 
d="M57 551.5q13 -12.5 13 -30.5t-13 -30.5t-31 -12.5t-30.5 12.5t-12.5 30.5t12.5 30.5t30.5 12.5t31 -12.5zM214.5 551.5q12.5 -12.5 12.5 -30.5t-12.5 -30.5t-30.5 -12.5t-30.5 12.5t-12.5 30.5t12.5 30.5t30.5 12.5t30.5 -12.5zM73 0v376h64v-376h-64z" />
    <glyph glyph-name="eth" unicode="&#xf0;" horiz-adv-x="449" 
d="M169 625.5q25 -17.5 50 -39.5l111 74l32 -33l-108 -72q168 -160 168 -350q0 -71 -29.5 -119.5t-75 -72t-92.5 -23.5q-54 0 -99.5 26.5t-72 72t-26.5 99.5q0 51 24.5 96.5t68 73t98.5 27.5q46 0 74.5 -15t50.5 -36q-34 97 -135 191l-106 -71l-32 32l104 70q-35 32 -100 72
l36 37q34 -22 59 -39.5zM130.5 89q38.5 -39 95.5 -39q58 0 95 40.5t37 98.5q0 37 -16.5 69t-46.5 51t-69 19q-58 0 -96 -40t-38 -99q0 -61 38.5 -100z" />
    <glyph glyph-name="ntilde" unicode="&#xf1;" horiz-adv-x="422" 
d="M107.5 548.5q18.5 16.5 45.5 16.5t65 -19q8 -3 24 -10.5t27 -7.5q15 0 25 10t20 28l37 -30q-11 -28 -33.5 -46.5t-51.5 -18.5q-22 0 -60 19q-4 2 -23 9.5t-33 7.5q-15 0 -23.5 -10t-16.5 -27l-39 32q18 30 36.5 46.5zM126 330q42 56 108 56q72 0 100 -44t28 -119v-223
h-64v212q0 37 -5 61t-22.5 39t-52.5 15q-59 0 -76 -40.5t-17 -108.5v-178h-64v376h64v-46h1z" />
    <glyph glyph-name="ograve" unicode="&#xf2;" horiz-adv-x="450" 
d="M274 464l-40 -22l-122 123l67 30zM125.5 16.5q-45.5 26.5 -72 71.5t-26.5 99q0 55 26.5 100.5t71.5 72t100 26.5q54 0 99 -26.5t71.5 -72t26.5 -100.5q0 -54 -26.5 -99t-71.5 -71.5t-99 -26.5t-99.5 26.5zM129 286.5q-38 -40.5 -38 -98.5q0 -59 38 -99t96 -40t95.5 40
t37.5 99q0 58 -37.5 98.5t-95.5 40.5t-96 -40.5z" />
    <glyph glyph-name="oacute" unicode="&#xf3;" horiz-adv-x="450" 
d="M216 442l-40 22l95 131l67 -30zM125.5 16.5q-45.5 26.5 -72 71.5t-26.5 99q0 55 26.5 100.5t71.5 72t100 26.5q54 0 99 -26.5t71.5 -72t26.5 -100.5q0 -54 -26.5 -99t-71.5 -71.5t-99 -26.5t-99.5 26.5zM129 286.5q-38 -40.5 -38 -98.5q0 -59 38 -99t96 -40t95.5 40
t37.5 99q0 58 -37.5 98.5t-95.5 40.5t-96 -40.5z" />
    <glyph glyph-name="ocircumflex" unicode="&#xf4;" horiz-adv-x="450" 
d="M350 483l-46 -36l-80 68l-79 -68l-46 36l125 107zM125.5 16.5q-45.5 26.5 -72 71.5t-26.5 99q0 55 26.5 100.5t71.5 72t100 26.5q54 0 99 -26.5t71.5 -72t26.5 -100.5q0 -54 -26.5 -99t-71.5 -71.5t-99 -26.5t-99.5 26.5zM129 286.5q-38 -40.5 -38 -98.5q0 -59 38 -99
t96 -40t95.5 40t37.5 99q0 58 -37.5 98.5t-95.5 40.5t-96 -40.5z" />
    <glyph glyph-name="otilde" unicode="&#xf5;" horiz-adv-x="450" 
d="M120 548q19 17 46 17q29 0 65 -19q8 -3 24.5 -10.5t26.5 -7.5q15 0 25.5 10.5t19.5 27.5l38 -30q-12 -28 -34.5 -46.5t-50.5 -18.5q-22 0 -60 19q-4 2 -23 9.5t-33 7.5q-15 0 -23.5 -10t-16.5 -27l-39 32q16 29 35 46zM125.5 16.5q-45.5 26.5 -72 71.5t-26.5 99
q0 55 26.5 100.5t71.5 72t100 26.5q54 0 99 -26.5t71.5 -72t26.5 -100.5q0 -54 -26.5 -99t-71.5 -71.5t-99 -26.5t-99.5 26.5zM129 286.5q-38 -40.5 -38 -98.5q0 -59 38 -99t96 -40t95.5 40t37.5 99q0 58 -37.5 98.5t-95.5 40.5t-96 -40.5z" />
    <glyph glyph-name="odieresis" unicode="&#xf6;" horiz-adv-x="450" 
d="M177 551.5q13 -12.5 13 -30.5t-13 -30.5t-31 -12.5t-30.5 12.5t-12.5 30.5t12.5 30.5t30.5 12.5t31 -12.5zM334.5 551.5q12.5 -12.5 12.5 -30.5t-12.5 -30.5t-30.5 -12.5t-30.5 12.5t-12.5 30.5t12.5 30.5t30.5 12.5t30.5 -12.5zM125.5 16.5q-45.5 26.5 -72 71.5
t-26.5 99q0 55 26.5 100.5t71.5 72t100 26.5q54 0 99 -26.5t71.5 -72t26.5 -100.5q0 -54 -26.5 -99t-71.5 -71.5t-99 -26.5t-99.5 26.5zM129 286.5q-38 -40.5 -38 -98.5q0 -59 38 -99t96 -40t95.5 40t37.5 99q0 58 -37.5 98.5t-95.5 40.5t-96 -40.5z" />
    <glyph glyph-name="divide" unicode="&#xf7;" 
d="M278.5 388.5q13.5 -13.5 13.5 -32.5t-13.5 -32.5t-32.5 -13.5q-18 0 -31.5 13.5t-13.5 32.5t13.5 32.5t31.5 13.5q19 0 32.5 -13.5zM440 236v-62h-387v62h387zM278.5 85.5q13.5 -13.5 13.5 -31.5q0 -19 -13.5 -32.5t-32.5 -13.5q-18 0 -31.5 13.5t-13.5 32.5
q0 18 13.5 31.5t31.5 13.5q19 0 32.5 -13.5z" />
    <glyph glyph-name="oslash" unicode="&#xf8;" horiz-adv-x="450" 
d="M27 187q0 55 26.5 100.5t71.5 72t100 26.5q36 0 68 -11.5t57 -32.5l52 53l32 -30l-54 -54q20 -25 31 -57t11 -67q0 -54 -26.5 -99t-71.5 -71.5t-99 -26.5q-70 0 -123 42l-55 -54l-31 31l54 54q-43 54 -43 124zM225 327q-58 0 -96 -40.5t-38 -98.5q0 -43 23 -81l192 192
q-33 28 -81 28zM225 49q58 0 95.5 40t37.5 99q0 46 -23 78l-190 -191q32 -26 80 -26z" />
    <glyph glyph-name="ugrave" unicode="&#xf9;" horiz-adv-x="410" 
d="M254 464l-40 -22l-122 123l67 30zM136 79q16 -30 69 -30q52 0 68.5 30t16.5 87v210h64v-217q0 -169 -149 -169t-149 169v217h64v-210q0 -57 16 -87z" />
    <glyph glyph-name="uacute" unicode="&#xfa;" horiz-adv-x="410" 
d="M196 442l-40 22l95 131l67 -30zM136 79q16 -30 69 -30q52 0 68.5 30t16.5 87v210h64v-217q0 -169 -149 -169t-149 169v217h64v-210q0 -57 16 -87z" />
    <glyph glyph-name="ucircumflex" unicode="&#xfb;" horiz-adv-x="410" 
d="M330 483l-46 -36l-80 68l-79 -68l-46 36l125 107zM136 79q16 -30 69 -30q52 0 68.5 30t16.5 87v210h64v-217q0 -169 -149 -169t-149 169v217h64v-210q0 -57 16 -87z" />
    <glyph glyph-name="udieresis" unicode="&#xfc;" horiz-adv-x="410" 
d="M157 551.5q13 -12.5 13 -30.5t-13 -30.5t-31 -12.5t-30.5 12.5t-12.5 30.5t12.5 30.5t30.5 12.5t31 -12.5zM314.5 551.5q12.5 -12.5 12.5 -30.5t-12.5 -30.5t-30.5 -12.5t-30.5 12.5t-12.5 30.5t12.5 30.5t30.5 12.5t30.5 -12.5zM136 79q16 -30 69 -30q52 0 68.5 30
t16.5 87v210h64v-217q0 -169 -149 -169t-149 169v217h64v-210q0 -57 16 -87z" />
    <glyph glyph-name="yacute" unicode="&#xfd;" horiz-adv-x="398" 
d="M206 442l-40 22l96 131l67 -30zM73 376l133 -270l121 270h73l-278 -587h-72l121 246l-173 341h75z" />
    <glyph glyph-name="thorn" unicode="&#xfe;" horiz-adv-x="462" 
d="M123 322q23 31 57 47.5t73 16.5q53 0 94 -27.5t63.5 -73.5t22.5 -98q0 -54 -22 -99t-63 -71.5t-96 -26.5q-39 0 -72.5 16.5t-56.5 46.5h-1v-264h-64v871h64v-338h1zM177 308q-28 -19 -43.5 -50t-15.5 -66q0 -59 33.5 -101t90.5 -42q59 0 92 41t33 101q0 58 -34 97t-92 39
q-36 0 -64 -19z" />
    <glyph glyph-name="ydieresis" unicode="&#xff;" horiz-adv-x="398" 
d="M155.5 551.5q12.5 -12.5 12.5 -30.5t-12.5 -30.5t-30.5 -12.5t-30.5 12.5t-12.5 30.5t12.5 30.5t30.5 12.5t30.5 -12.5zM313 551.5q13 -12.5 13 -30.5t-13 -30.5t-31 -12.5t-30.5 12.5t-12.5 30.5t12.5 30.5t30.5 12.5t31 -12.5zM73 376l133 -270l121 270h73l-278 -587
h-72l121 246l-173 341h75z" />
    <glyph glyph-name="dotlessi" unicode="&#x131;" horiz-adv-x="210" 
d="M73 0v376h64v-376h-64z" />
    <glyph glyph-name="Lslash" unicode="&#x141;" horiz-adv-x="300" 
d="M0 216v64l61 39v284h67v-240l104 67v-64l-104 -67v-237h166v-62h-233v255z" />
    <glyph glyph-name="lslash" unicode="&#x142;" horiz-adv-x="206" 
d="M12 257v57l59 39v307h64v-264l59 39v-57l-59 -39v-339h-64v296z" />
    <glyph glyph-name="OE" unicode="&#x152;" horiz-adv-x="952" 
d="M582 116q-38 -59 -100.5 -92.5t-133.5 -33.5q-85 0 -158.5 41.5t-116.5 112.5t-43 157q0 85 42.5 157t115 114t157.5 42q71 0 133.5 -34t103.5 -95h1v118h315v-62h-248v-179h241v-63h-241v-237h248v-62h-315v116h-1zM220.5 517.5q-56.5 -33.5 -89.5 -91t-33 -124.5
t33 -124.5t90 -91.5t124 -34t124 34t90 91.5t33 124.5t-33 124.5t-89.5 91t-124.5 33.5t-124.5 -33.5z" />
    <glyph glyph-name="oe" unicode="&#x153;" horiz-adv-x="752" 
d="M463 85q34 -36 88 -36q71 0 115 77l54 -31q-27 -51 -72 -78t-102 -27q-47 0 -91 24t-64 65q-24 -42 -70 -65.5t-96 -23.5q-54 0 -99.5 26.5t-72 71.5t-26.5 99q0 55 26.5 100.5t71.5 72t100 26.5q53 -1 98.5 -25t67.5 -66q22 43 63 66.5t91 24.5q58 0 100 -29t62.5 -77.5
t17.5 -105.5h-297q1 -53 35 -89zM130.5 286.5q-37.5 -40.5 -37.5 -98.5q0 -59 37.5 -99t95.5 -40q59 0 96.5 40t37.5 99q0 58 -37.5 98.5t-96.5 40.5q-58 0 -95.5 -40.5zM620.5 298.5q-31.5 28.5 -72.5 28.5t-74.5 -28.5t-39.5 -69.5h224q-6 41 -37.5 69.5z" />
    <glyph glyph-name="Scaron" unicode="&#x160;" horiz-adv-x="447" 
d="M106 761l47 36l80 -68l79 68l46 -36l-125 -107zM291 535q-24 16 -61 16q-41 0 -70.5 -26.5t-29.5 -66.5q0 -34 25 -54t70 -41l40 -17q71 -32 108 -68.5t37 -101.5q0 -52 -25.5 -94.5t-69 -67t-95.5 -24.5q-72 0 -123 42.5t-65 113.5l66 18q6 -48 39.5 -80t80.5 -32
q32 0 61 15.5t46 42.5t17 60t-15 54.5t-36.5 34.5t-59.5 31l-37 16q-64 29 -97.5 62.5t-33.5 91.5q0 46 23 81t62 54t84 19q50 0 91 -25t65 -69l-54 -34q-19 33 -43 49z" />
    <glyph glyph-name="scaron" unicode="&#x161;" horiz-adv-x="319" 
d="M34 554l47 36l80 -68l79 68l46 -36l-125 -107zM192 316q-14 11 -30 11q-18 0 -32.5 -12t-14.5 -29q0 -21 18 -33t40 -21t29 -12q40 -16 64 -40.5t24 -67.5q0 -53 -37.5 -87.5t-90.5 -34.5q-47 0 -82 25.5t-50 69.5l56 24q14 -30 31 -45t46 -15q26 0 43.5 16t17.5 41
t-18 39t-56 31q-31 13 -50 24t-32.5 30.5t-13.5 49.5q0 46 33 76t79 30q32 0 60 -19.5t40 -49.5l-53 -28q-7 16 -21 27z" />
    <glyph glyph-name="Ydieresis" unicode="&#x178;" horiz-adv-x="474" 
d="M198.5 758.5q12.5 -12.5 12.5 -30.5t-12.5 -30.5t-30.5 -12.5t-30.5 12.5t-12.5 30.5t12.5 30.5t30.5 12.5t30.5 -12.5zM356.5 758.5q12.5 -12.5 12.5 -30.5t-12.5 -30.5t-30.5 -12.5t-31 12.5t-13 30.5t13 30.5t31 12.5t30.5 -12.5zM84 603l154 -269l153 269h78
l-198 -344v-259h-67v259l-198 344h78z" />
    <glyph glyph-name="Zcaron" unicode="&#x17d;" horiz-adv-x="469" 
d="M118 761l47 36l80 -68l79 68l46 -36l-125 -107zM443 0h-432l329 541h-287v62h399l-330 -541h321v-62z" />
    <glyph glyph-name="zcaron" unicode="&#x17e;" horiz-adv-x="415" 
d="M94 554l47 36l80 -68l79 68l46 -36l-125 -107zM397 0h-389l271 317h-221v59h350l-270 -317h259v-59z" />
    <glyph glyph-name="florin" unicode="&#x192;" 
d="M378 609q-18 0 -30.5 -5.5t-20.5 -20.5q-9 -20 -21 -73l-20 -108h96l-8 -55h-97l-47 -251q-10 -55 -18 -87t-25 -57q-23 -33 -61 -48.5t-82 -15.5l-40 3l13 60l27 -1q44 0 68 20t34 48.5t19 80.5l45 248h-65l9 55h67l22 126q12 68 41 105t92 37q30 0 54 -10l-12 -60
q-18 9 -40 9z" />
    <glyph glyph-name="circumflex" unicode="&#x2c6;" horiz-adv-x="376" 
d="M314 483l-47 -36l-80 68l-79 -68l-46 36l125 107z" />
    <glyph glyph-name="caron" unicode="&#x2c7;" horiz-adv-x="376" 
d="M62 554l47 36l80 -68l79 68l46 -36l-125 -107z" />
    <glyph glyph-name="uni02C9" unicode="&#x2c9;" horiz-adv-x="399" 
d="M337 491h-274v55h274v-55z" />
    <glyph glyph-name="breve" unicode="&#x2d8;" horiz-adv-x="388" 
d="M147 531.5q18 -13.5 47 -13.5t47.5 13.5t28.5 41.5h56q-7 -49 -44 -79t-88 -30q-49 0 -86.5 30t-44.5 79h55q11 -28 29 -41.5z" />
    <glyph glyph-name="dotaccent" unicode="&#x2d9;" horiz-adv-x="286" 
d="M173.5 560.5q12.5 -12.5 12.5 -30.5t-12.5 -31t-30.5 -13t-30.5 13t-12.5 31t12.5 30.5t30.5 12.5t30.5 -12.5z" />
    <glyph glyph-name="ring" unicode="&#x2da;" horiz-adv-x="280" 
d="M195 575q23 -23 23 -55t-22.5 -55t-54.5 -23t-55.5 23t-23.5 55t23.5 55t55.5 23q31 0 54 -23zM113.5 547q-11.5 -11 -11.5 -27t11.5 -27t27.5 -11t26.5 11t10.5 27t-10.5 27t-26.5 11t-27.5 -11z" />
    <glyph glyph-name="ogonek" unicode="&#x2db;" horiz-adv-x="270" 
d="M180 -2q-64 -41 -64 -80q0 -18 13 -27t31 -9q25 0 48 15l-8 -53q-24 -12 -50 -12q-35 0 -61.5 20t-26.5 54q0 29 19 53t48 41h51v-2z" />
    <glyph glyph-name="tilde" unicode="&#x2dc;" horiz-adv-x="405" 
d="M98.5 548.5q18.5 16.5 45.5 16.5q29 0 65 -19q8 -3 24.5 -10.5t26.5 -7.5q15 0 25 10t20 28l37 -30q-11 -28 -33.5 -46.5t-50.5 -18.5q-22 0 -60 19q-4 1 -23 9t-33 8q-15 0 -23.5 -9.5t-16.5 -27.5l-40 32q18 30 36.5 46.5z" />
    <glyph glyph-name="hungarumlaut" unicode="&#x2dd;" horiz-adv-x="374" 
d="M70 475l48 130l60 -11l-76 -128zM196 475l47 130l61 -11l-76 -128z" />
    <glyph glyph-name="uni0302" unicode="&#x302;" horiz-adv-x="0" 
d="M-123 494l-27 -32l-93 59l-95 -59l-25 32l120 83z" />
    <glyph glyph-name="uni03A9" unicode="&#x3a9;" horiz-adv-x="640" 
d="M91 167q-34 69 -34 155q0 83 35 149t95.5 102.5t134.5 36.5q77 0 136 -39t91.5 -104.5t32.5 -140.5q0 -89 -35.5 -160.5t-86.5 -111.5v-3h134v-51h-211v38q57 36 96.5 107.5t39.5 168.5q0 60 -23 116.5t-67.5 92.5t-106.5 36q-60 0 -106 -32.5t-71 -89t-25 -124.5
q0 -93 40 -167t96 -108v-38h-212v51h134v3q-53 44 -87 113z" />
    <glyph glyph-name="uni03BC" unicode="&#x3bc;" horiz-adv-x="410" 
d="M136 79q16 -30 69 -30q52 0 68.5 30t16.5 87v210h64v-217q0 -169 -149 -169q-24 0 -43 7t-42 30v-238h-64v587h64v-210q0 -57 16 -87z" />
    <glyph glyph-name="pi" unicode="&#x3c0;" horiz-adv-x="502" 
d="M406 128q0 -82 14 -128h-61q-15 23 -15 122v272h-163q-5 -95 -24 -216.5t-42 -177.5h-61q24 66 42.5 184t21.5 210q-40 0 -62.5 -3t-37.5 -9l-10 42q36 23 126 23h352l-7 -53h-73v-266z" />
    <glyph glyph-name="uni10D0" unicode="&#x10d0;" horiz-adv-x="426" 
d="M224.5 361q7.5 -16 19.5 -26t36 -26l26 -17q43 -32 62.5 -65.5t19.5 -81.5q0 -25 -9 -51q-20 -54 -62 -83q-43 -30 -121 -30q-77 0 -121 43q-25 24 -36 52t-11 64q0 14 7 49h64q-5 -22 -5 -51q0 -22 6 -37t21 -30q26 -25 75 -25q56 0 83 20q19 15 30 36.5t11 46.5
q0 51 -51 93q-2 1 -31 20q-36 21 -52 38q-24 27 -31 61q-4 13 -4 41h66q0 -25 7.5 -41z" />
    <glyph glyph-name="uni10D1" unicode="&#x10d1;" horiz-adv-x="477" 
d="M46.5 92.5q-14.5 36.5 -14.5 76.5q0 88 59 152q43 47 119 59q0 9 2 31q2 30 2 46v17q0 29 -3.5 41t-16.5 17.5t-46 8.5q-16 1 -49 1h-39v-52h-66v165h66v-47q7 0 20.5 1t31.5 1q28 0 80 -8t71 -43t19 -92q0 -16 -1 -36.5t-2 -31.5q-2 -14 -2 -21q71 -13 114 -67
q49 -61 49 -145q0 -22 -3 -34q-11 -79 -63 -120.5t-122 -41.5q-105 0 -165 60q-26 26 -40.5 62.5zM144 74q34 -37 107 -37q53 0 88 35t35 92q0 22 -7 48q-14 52 -48 78t-77 26q-36 0 -68.5 -17.5t-52.5 -50t-20 -74.5q0 -54 43 -100z" />
    <glyph glyph-name="uni10D2" unicode="&#x10d2;" horiz-adv-x="511" 
d="M344 126q58 -27 94 -85t36 -124q0 -59 -30.5 -104.5t-80 -70t-106.5 -24.5q-56 0 -106.5 23.5t-82.5 68.5t-32 107q0 106 70.5 160t173.5 63q7 46 7 71q0 53 -17.5 80.5t-55.5 27.5q-42 0 -60 -27t-18 -81q0 -18 3 -39h-69q-3 14 -3 45q0 69 37 118.5t105 49.5
q71 0 108 -45.5t37 -132.5q0 -41 -10 -81zM155.5 32q-55.5 -39 -55.5 -112q0 -35 19 -66.5t52 -50.5t74 -19h4q39 0 75.5 14.5t60 45t23.5 75.5q0 35 -16 69.5t-44.5 57.5t-62.5 28q-74 -3 -129.5 -42z" />
    <glyph glyph-name="uni10D3" unicode="&#x10d3;" horiz-adv-x="665" 
d="M132 -45q-49 43 -73 92t-24 115q0 55 19 106t57.5 84t92.5 33q33 0 63 -14.5t53 -40.5l16 16q22 20 51.5 30t61.5 10q81 0 130 -53.5t49 -137.5q0 -60 -24 -108t-67 -75t-97 -27q-50 0 -87.5 27t-57 70.5t-19.5 92.5q0 29 1.5 47.5t6.5 36.5q-15 27 -32 43t-43 16h-7
q-49 0 -74.5 -46t-25.5 -102v-11q0 -71 31.5 -115.5t97.5 -88.5q135 -13 227 -59t142 -158h-79q-31 58 -76 88.5t-96.5 42.5t-132.5 20q-112 0 -157 -4v67zM340 186q0 -57 29.5 -96.5t77.5 -39.5q32 0 58.5 19.5t42 54t15.5 77.5q0 56 -32.5 88t-78.5 32q-33 0 -61 -17
t-39 -49q-12 -34 -12 -69z" />
    <glyph glyph-name="uni10D4" unicode="&#x10d4;" horiz-adv-x="454" 
d="M80 207q0 78 42.5 123.5t116.5 45.5q36 0 68.5 -12t55.5 -34q30 -30 38.5 -75t8.5 -109v-157q0 -54 -3 -89t-15 -69q-20 -59 -64 -88t-108 -29q-56 0 -97.5 24t-64 66t-22.5 94t21 117h70q-23 -67 -23 -118q0 -55 32 -86t92 -31q66 0 90 52.5t24 149.5v178q0 45 -6 76.5
t-28.5 52.5t-68.5 21q-51 0 -72.5 -27.5t-21.5 -71.5q0 -29 6 -65h-67q-4 27 -4 61z" />
    <glyph glyph-name="uni10D5" unicode="&#x10d5;" horiz-adv-x="454" 
d="M266 149q29 4 47 30.5t18 59.5q0 77 -107 77q-76 0 -91 -66q-2 -12 -2 -19q0 -9 2 -29q1 -4 2 -12.5t1 -15.5h-67q0 10 -2 28t-2 28q0 14 3 35q9 54 49.5 86.5t108.5 32.5q76 0 123.5 -38.5t47.5 -105.5q0 -37 -15 -71t-42 -57q33 -28 42 -71.5t9 -114.5
q0 -91 -34.5 -149.5t-132.5 -58.5q-88 0 -138.5 46t-50.5 139q0 36 11 97h67l-6 -36t-5 -58q0 -66 29.5 -93.5t94.5 -27.5q56 0 77.5 32.5t21.5 98.5q0 55 -4 85.5t-16.5 50t-38.5 29.5h-45v66z" />
    <glyph glyph-name="uni10D6" unicode="&#x10d6;" horiz-adv-x="606" 
d="M75.5 422.5q-40.5 42.5 -40.5 99.5q0 40 20 76t56 58t83 22q39 0 75.5 -18t59.5 -49t23 -70q0 -30 -7.5 -63t-22.5 -84l-10 -34q51 20 89 20q87 0 128.5 -58t41.5 -137q0 -56 -23.5 -104.5t-67.5 -75.5q-21 -13 -46 -18t-60 -5q-53 0 -92 28.5t-60 74.5t-21 99q0 30 9 66
t25 87l16 52q-33 -11 -55 -13l-11 -1q-69 5 -109.5 47.5zM281 530q0 30 -24 55t-66 25q-34 0 -61.5 -22t-27.5 -58q0 -40 23 -64t60 -24q96 0 96 88zM302 275q-34 -35 -34 -95q0 -30 12.5 -60.5t36 -50.5t55.5 -20q60 0 92 27q20 17 29.5 43.5t9.5 58.5q0 57 -24.5 93.5
t-81.5 42.5q-61 -4 -95 -39z" />
    <glyph glyph-name="uni10D7" unicode="&#x10d7;" horiz-adv-x="705" 
d="M118.5 350q46.5 30 110.5 30q40 0 72.5 -14.5t59.5 -45.5q19 30 52.5 46t72.5 16q81 0 125.5 -54t44.5 -143q0 -45 -9.5 -94t-23.5 -91h-67q13 41 23 91.5t10 95.5q0 62 -26.5 96t-75.5 34q-72 0 -87 -83q7 -24 7 -55q0 -52 -23 -97.5t-64.5 -73t-95.5 -27.5t-97 26
t-67 71t-24 101q0 42 11 75l4 10q21 56 67.5 86zM104 176q0 -58 35 -94t85 -36q51 0 83.5 39t32.5 99q0 55 -29 92.5t-81 37.5q-83 0 -118 -77q-8 -27 -8 -61z" />
    <glyph glyph-name="uni10D8" unicode="&#x10d8;" horiz-adv-x="438" 
d="M32 159v15q0 54 20.5 101.5t61 77t98.5 29.5q62 0 105.5 -31.5t65.5 -83.5t22 -113q0 -74 -26 -154h-70l12 40q16 49 16 124q0 60 -31 106t-90 46q-57 0 -88.5 -43t-31.5 -108q0 -62 19 -126l11 -39h-69q-25 84 -25 159z" />
    <glyph glyph-name="uni10D9" unicode="&#x10d9;" horiz-adv-x="452" 
d="M264 147q30 0 48.5 29.5t18.5 64.5q0 42 -25 64q-16 13 -74 13v67q32 0 64.5 -6.5t50.5 -21.5q25 -19 37.5 -49t12.5 -63q0 -39 -14 -74t-42 -60q32 -30 41 -68t9 -107q0 -95 -34.5 -156.5t-137.5 -61.5q-84 0 -134 51t-50 144q0 28 4 53.5t5 33.5h67q-2 -14 -4 -21
q-7 -39 -7 -65q0 -63 30.5 -96t88.5 -33q64 0 85.5 38t21.5 112q0 56 -10.5 92t-48.5 54h-33v66h30z" />
    <glyph glyph-name="uni10DA" unicode="&#x10da;" horiz-adv-x="806" 
d="M120 -59q-91 84 -91 226q0 57 18 106.5t54 80t87 30.5t88 -43l15 -20q17 30 48 45.5t65 15.5q33 0 61 -14t47 -42q18 29 49 44.5t66 15.5q74 0 107.5 -57t33.5 -147q0 -49 -12 -111h-68q13 49 13 113q0 136 -77 136q-33 0 -49 -19t-20.5 -44.5t-5.5 -63.5l-2 -28v-28h-70
v32q0 42 -4.5 72.5t-22 53t-54.5 22.5q-34 0 -50.5 -34.5t-21.5 -84.5v-61h-67v45q0 49 -16 92t-53 43q-45 0 -69 -44t-24 -104q0 -39 7 -70q9 -41 35 -76.5t54.5 -57t40.5 -22.5l20 -1q117 -6 195.5 -18.5t144.5 -56t80 -129.5h-70q-2 7 -4.5 17t-7 18t-13.5 20
q-38 47 -129 64.5t-194 17.5q-5 0 -34.5 -0.5t-155.5 -0.5l-2 67h58z" />
    <glyph glyph-name="uni10DB" unicode="&#x10db;" horiz-adv-x="456" 
d="M75 312q26 34 65 53t86 19q63 0 114 -48v128q0 41 -5 67.5t-26 46.5t-65 20q-59 0 -86.5 -29.5t-27.5 -81.5q0 -37 1 -41h-65q-2 12 -2 39q0 77 45.5 129t130.5 52q42 0 76.5 -13.5t55.5 -42.5q20 -28 25.5 -64t5.5 -87v-265q0 -55 -22 -104t-64.5 -79t-99.5 -30
q-54 0 -95 29.5t-63.5 77.5t-22.5 102q0 73 39 122zM173.5 304.5q-26.5 -13.5 -44.5 -37.5q-28 -33 -28 -81q0 -56 32 -97t84 -41q39 0 66 22t40 55.5t13 68.5q0 31 -13 59.5t-37.5 46.5t-55.5 18q-30 0 -56.5 -13.5z" />
    <glyph glyph-name="uni10DC" unicode="&#x10dc;" horiz-adv-x="456" 
d="M244 380q52 0 92.5 -24.5t62.5 -68t22 -97.5q0 -100 -53 -159q-24 -25 -58 -39t-71 -14q-54 0 -97 29t-67 77.5t-24 104.5v335q0 59 25 98t76 39h242v-67h-239q-25 0 -31.5 -20t-6.5 -52v-184q55 42 127 42zM119 182q0 -37 16.5 -69t44 -50.5t59.5 -18.5q25 0 48.5 11.5
t39.5 33.5q27 37 27 105q0 51 -29 85.5t-81 34.5q-83 0 -118 -77q-7 -27 -7 -55z" />
    <glyph glyph-name="uni10DD" unicode="&#x10dd;" horiz-adv-x="656" 
d="M295 216q0 38 -21 68t-65 30q-58 0 -81.5 -38.5t-23.5 -98.5q0 -41 10 -89t25 -88h-69q-32 100 -32 180q0 91 45 145.5t126 54.5q35 0 66.5 -14t52.5 -41q20 27 53 41t71 14q87 0 126.5 -58t39.5 -143q0 -80 -33 -179h-69q14 40 24.5 91t10.5 94q0 62 -24.5 95.5
t-74.5 33.5q-43 0 -67 -26.5t-24 -65.5v-88h-66v82z" />
    <glyph glyph-name="uni10DE" unicode="&#x10de;" horiz-adv-x="456" 
d="M88 184q0 -75 28 -110q34 -40 96 -40q51 0 86.5 34.5t35.5 92.5q0 50 -28 75q-32 30 -101 30v68q50 2 87 20.5t37 62.5q0 24 -14 39q-15 15 -33 25.5t-58 31.5q-34 16 -52.5 27t-32.5 28q-25 29 -25 79v9h66v-10q0 -29 20 -45.5t58 -33.5q6 -3 13.5 -6.5t15.5 -7.5
q31 -16 51 -29.5t34 -31.5q23 -33 23 -76q0 -37 -16.5 -66.5t-46.5 -48.5q33 -25 50.5 -62t17.5 -80q0 -54 -25 -98t-67.5 -68.5t-93.5 -24.5q-97 0 -150 63q-42 56 -42 159q0 10 1 20t2 16l67 -4q-4 -16 -4 -38z" />
    <glyph glyph-name="uni10DF" unicode="&#x10df;" horiz-adv-x="513" 
d="M99 230.5q-4 -16.5 -4 -36.5q0 -31 19 -52.5t52 -21.5q30 0 52 16t22 44q0 19 -7.5 38.5t-22.5 27.5v64q121 10 194 76h56v-460q0 -39 -5 -70t-19 -61q-18 -40 -56 -58t-88 -18q-94 0 -140.5 50.5t-46.5 135.5q0 45 8 95h67q-9 -46 -9 -98q0 -117 124 -117q44 0 65.5 21
t27.5 51.5t6 75.5v362q-48 -28 -107 -41q18 -43 18 -80q0 -54 -41.5 -87t-97.5 -33q-68 0 -102 42t-34 102q0 35 14 58h65q-6 -9 -10 -25.5z" />
    <glyph glyph-name="uni10E0" unicode="&#x10e0;" horiz-adv-x="656" 
d="M45 112q-9 66 -9 118q0 112 64.5 181t185.5 115l54 18q68 20 108 43t52 68h73q-13 -52 -44 -84.5t-69 -50t-103 -39.5q-71 -24 -118 -47t-84 -63q27 8 53 8q36 0 67.5 -13.5t52.5 -40.5q20 27 53 41t71 14q87 0 126.5 -58t39.5 -143q0 -44 -9 -93t-23 -86h-72
q17 51 27 95.5t10 89.5q0 60 -24 94.5t-75 34.5q-41 0 -64.5 -23.5t-28.5 -64.5v-92h-64v82q0 38 -21 68t-65 30q-58 0 -81.5 -38.5t-23.5 -98.5q0 -45 10 -87.5t30 -89.5h-74q-16 46 -25 112z" />
    <glyph glyph-name="uni10E1" unicode="&#x10e1;" horiz-adv-x="474" 
d="M415 317q32 -81 32 -151q0 -87 -59 -136t-152 -49q-191 0 -191 257v417h67v-423q0 -51 7 -87t36 -66t90 -38q54 0 93 34.5t42 88.5q-2 49 -16 93.5t-42 112.5h72z" />
    <glyph glyph-name="uni10E2" unicode="&#x10e2;" horiz-adv-x="682" 
d="M307 19q-58 18 -92 62.5t-34 105.5q0 56 34.5 91.5t88.5 47.5v58q0 56 7.5 91t31 55.5t69.5 20.5q50 0 76 -19t37 -57q7 -26 9 -60t2 -95v-39q54 -37 79.5 -96.5t26.5 -149.5q0 -93 -36 -178q-30 -70 -104 -104t-165 -34q-70 0 -131 19.5t-99 59.5q-78 81 -78 221
q0 56 13 119t33 117h65q-19 -52 -31.5 -114.5t-12.5 -120.5q0 -104 53.5 -169t177.5 -65q127 0 188 60.5t61 187.5q0 47 -11 89t-33 72q-10 -97 -49.5 -141.5t-108.5 -45.5v-94h-67v105zM372 334q43 0 99 -20l-2 71q0 54 -4 69q-4 19 -15 25t-38 6q-40 0 -40 -53v-98z
M374 75q40 4 59.5 23t26.5 52t10 94q-40 18 -98 22v-36q0 -103 2 -155zM265 128q16 -27 41 -41v172l-10 -4q-47 -17 -47 -71q0 -29 16 -56z" />
    <glyph glyph-name="uni10E3" unicode="&#x10e3;" horiz-adv-x="628" 
d="M320 239q0 34 -4.5 58.5t-20.5 24.5q-13 0 -25.5 -12t-26.5 -31q-5 -5 -8.5 -9.5t-6.5 -7.5q-29 -33 -52.5 -50.5t-55.5 -17.5q-40 0 -67 32.5t-27 75.5q0 15 4 45q2 9 4 27h66q-1 -6 -4 -25t-3 -35q0 -52 28 -52q15 0 29.5 14t33.5 38q27 36 52 54t59 18q22 0 40.5 -9.5
t29.5 -29.5q33 33 86 33q40 0 66 -14.5t39 -45.5q16 -38 16 -101v-258q0 -93 -24 -150q-22 -49 -76 -72.5t-120 -23.5q-99 0 -153.5 56t-54.5 147q0 26 3.5 42.5t12.5 39.5h66q-7 -16 -11 -39t-4 -43q0 -66 35 -101t106 -35q47 0 78 11t48 36q25 33 25 106v287q0 42 -9.5 67
t-43.5 25q-27 0 -46.5 -22.5t-19.5 -49.5v-128h-64v125z" />
    <glyph glyph-name="uni10E4" unicode="&#x10e4;" horiz-adv-x="688" 
d="M352 322q24 28 58 44t71 16q64 0 106.5 -43t42.5 -121q0 -50 -14.5 -87t-50.5 -65q30 -27 45 -68t15 -89q0 -96 -55.5 -144.5t-149.5 -48.5q-95 0 -153 45.5t-58 136.5q0 40 7 66h66l-3 -22q-4 -21 -4 -47q0 -60 40.5 -87t106.5 -27t101 30.5t35 98.5q0 41 -16 75t-46 46
l-42 3v62l32 2q39 14 59 41.5t20 77.5q0 44 -20 71.5t-63 27.5q-50 0 -95 -54q8 -21 8 -56q0 -50 -22.5 -92.5t-64 -67.5t-94.5 -25q-48 0 -89.5 22t-67 63t-25.5 94q0 52 25 95.5t67.5 69t91.5 25.5q52 0 100 -33q22 -16 36 -35zM296 286q-32 36 -82 36q-32 0 -58 -17
t-41 -45t-15 -60q0 -52 33 -83t78 -31q49 0 83 33t34 82t-32 85z" />
    <glyph glyph-name="uni10E5" unicode="&#x10e5;" horiz-adv-x="454" 
d="M404.5 105.5q0.5 -109.5 0.5 -127.5v-24q0 -69 -6.5 -115t-29.5 -73q-25 -26 -67 -41t-86 -15q-89 0 -139 54.5t-50 146.5q0 48 14 90h65q-5 -18 -8.5 -46t-3.5 -50q0 -61 31.5 -95t93.5 -34q28 0 53.5 9t42.5 25q13 15 17 37.5t4 53.5l1 21v357q-18 3 -65 3
q-39 0 -63 -8t-38 -25q-22 -28 -22 -90h-63q0 95 38 139q25 29 63 40t92 11q4 0 58 -3v145q-31 -27 -66.5 -38t-93.5 -12v66q43 2 68.5 9.5t45 24t46.5 50.5v59h67q0 -435 0.5 -544.5z" />
    <glyph glyph-name="uni10E6" unicode="&#x10e6;" horiz-adv-x="674" 
d="M570 181q0 52 -26 92.5t-76 40.5q-59 0 -76.5 -47t-18.5 -112q0 -16 -1 -21h-64q0 80 -25 132t-79 52q-29 0 -52 -21t-36.5 -55.5t-13.5 -72.5q0 -48 14.5 -82.5t36.5 -58t62 -58.5l16 -15q106 -10 190.5 -46t138.5 -110q7 -10 16 -30t13 -33h-69q-31 58 -75.5 89t-96 42
t-132.5 19q-68 0 -150 -5l-2 62q19 4 72 8q-50 47 -74 97.5t-24 121.5q0 51 19.5 100.5t57 82t89.5 32.5q40 0 76 -20t59 -55q20 33 54 52t77 19q55 0 92.5 -29t55.5 -74t18 -94q0 -23 -3 -49.5t-6 -42.5t-4 -20h-67q14 61 14 109z" />
    <glyph glyph-name="uni10E7" unicode="&#x10e7;" horiz-adv-x="454" 
d="M402 160q3 -108 3 -217q0 -52 -7 -93t-28 -72q-23 -35 -63.5 -53.5t-87.5 -18.5q-86 0 -134.5 55.5t-48.5 147.5q0 29 8 91h67q-2 -16 -4 -24q-7 -54 -7 -73q0 -61 31.5 -95t95.5 -34t86.5 43.5t22.5 112.5v141l-88 -1q-77 0 -123 39.5t-46 144.5q0 55 5 120h67
q0 -29 -3 -61q-1 -11 -2 -26.5t-1 -36.5q0 -47 12 -71.5t33 -32.5t54 -8h92q-2 152 -2 236h66q0 -72 2 -214z" />
    <glyph glyph-name="uni10E8" unicode="&#x10e8;" horiz-adv-x="476" 
d="M357 563.5q-3 18.5 -17 32.5t-44 14q-34 0 -45.5 -31t-11.5 -81v-28h-67v29q0 43 -14.5 75.5t-48.5 32.5q-17 0 -48 -15.5t-51 -30.5v72q27 24 52 33.5t54 9.5q56 0 86 -46q17 23 43 34.5t55 11.5q35 0 67 -17.5t45 -47.5q9 -19 11.5 -41.5t2.5 -51.5v-338
q0 -57 -24 -102.5t-66.5 -72t-96.5 -26.5q-61 0 -103 29t-68 98q-12 35 -12 70q0 55 22.5 102t64.5 75t96 28q67 0 121 -41v177q0 28 -3 46.5zM241 315q-56 0 -86.5 -38.5t-30.5 -94.5q0 -58 32 -97.5t83 -39.5q50 0 85.5 36t35.5 94q0 26 -9 62q-34 78 -110 78z" />
    <glyph glyph-name="uni10E9" unicode="&#x10e9;" horiz-adv-x="447" 
d="M52 158v95q-1 64 -1 268q0 50 24.5 85t63.5 52t81 17q47 0 83 -17.5t56 -47.5t20 -65q0 -82 -76 -114t-187 -37v-62q54 52 129 52q80 0 125 -58.5t45 -151.5q0 -96 -40 -174h-70q20 35 32 83t12 95q0 62 -26.5 101.5t-74.5 39.5q-54 0 -90 -38.5t-42 -98.5v-182h-67
q3 80 3 158zM121.5 546.5q-5.5 -22.5 -5.5 -84.5q75 0 135.5 15.5t60.5 72.5q0 29 -27 46t-65 17q-22 0 -40.5 -7t-35.5 -23q-17 -14 -22.5 -36.5z" />
    <glyph glyph-name="uni10EA" unicode="&#x10ea;" horiz-adv-x="646" 
d="M478 362q2 -3 2 -5q5 -12 15.5 -24.5t21.5 -22.5q3 -4 14.5 -16t18.5 -25q16 -24 16 -53q0 -36 -25 -74q29 -31 47 -77.5t18 -94.5q0 -67 -30.5 -126t-85.5 -90q-29 -17 -65 -26.5t-73 -9.5q-54 0 -83 8q-103 31 -160.5 110.5t-57.5 189.5q0 59 19 146q13 56 36.5 101.5
t64.5 99.5h81q-41 -49 -74 -107.5t-44 -109.5q-15 -68 -15 -126q0 -83 34.5 -143t106.5 -87q18 -7 45 -11t50 -4q52 0 101 25q39 21 61.5 63t22.5 93q0 31 -10.5 63.5t-26 54t-28.5 22.5h-70v65q38 0 77 3q13 16 18 45q0 13 -22 37q-6 6 -24 25.5t-30 38.5q-8 15 -12 25
t-4 25v4h68q0 -9 2 -12z" />
    <glyph glyph-name="uni10EB" unicode="&#x10eb;" horiz-adv-x="456" 
d="M400 655v-494q0 -81 -47 -130.5t-129 -49.5q-52 0 -95 23.5t-68 67.5t-25 103q0 56 22.5 101.5t64 71.5t97.5 26q40 0 69.5 -10.5t54.5 -38.5v330h56zM133.5 67.5q31.5 -38.5 90.5 -38.5q112 0 112 155q0 70 -28.5 98.5t-87.5 28.5q-54 0 -86 -32.5t-32 -103.5
q0 -69 31.5 -107.5z" />
    <glyph glyph-name="uni10EC" unicode="&#x10ec;" horiz-adv-x="476" 
d="M239 381q54 0 95.5 -28t64 -75t22.5 -102q0 -41 -10 -70q-25 -68 -67.5 -96.5t-104.5 -28.5q-55 0 -97.5 26t-66.5 71t-24 102v347v22q0 14 2 21q1 24 12 51q14 30 45 47.5t66 17.5q30 0 56 -12t43 -34q32 46 86 46q30 0 54 -9.5t52 -34.5v-72q-20 15 -51 31t-48 16
q-35 0 -49 -32.5t-14 -76.5v-29h-66v28q0 50 -12 81t-47 31q-30 0 -43.5 -14t-16.5 -32t-3 -47v-186q54 41 122 41zM117 175q0 -58 36 -93.5t86 -35.5q59 0 92 53q21 36 21 83q0 56 -30 94.5t-86 38.5q-76 0 -110 -78q-9 -30 -9 -62z" />
    <glyph glyph-name="uni10ED" unicode="&#x10ed;" horiz-adv-x="519" 
d="M99 -77q0 -27 4 -44.5t17 -36.5q19 -26 51 -40t69 -14q94 0 144.5 45t50.5 124q0 96 -59 152q-21 18 -62.5 30t-81.5 17v58q-48 13 -80 55.5t-32 92.5q0 46 29.5 83.5t85.5 51.5v41h66l-1 -41q60 -11 101 -52l7 -7q11 24 19 54h68q-15 -50 -38 -106l66 -120h-67l-32 59
q-49 -80 -115 -108q56 -9 100 -47.5t68 -94.5t24 -115q0 -73 -33.5 -127.5t-91 -83.5t-128.5 -29q-49 0 -94 18.5t-77 51.5q-26 27 -35.5 60t-9.5 79q0 26 10 71h68q-11 -23 -11 -77zM199 402q-13 -18 -13 -40q0 -24 13 -46.5t33 -33.5q0 98 2 147q-22 -9 -35 -27zM363 352
q7 11 16 24q-41 41 -79 53q-1 -49 -1 -143q32 22 52 48q5 7 12 18z" />
    <glyph glyph-name="uni10EE" unicode="&#x10ee;" horiz-adv-x="456" 
d="M378.5 315q41.5 -55 41.5 -130q0 -56 -21 -102.5t-63.5 -74.5t-104.5 -28q-55 0 -96 29.5t-62.5 78t-21.5 102.5v465h66v-311q60 86 108 148h82q-12 -15 -39 -52.5t-44 -62.5l35 2q78 -9 119.5 -64zM191 300.5q-24 -10.5 -43 -31.5q-31 -36 -31 -89q0 -29 14 -60.5
t39.5 -52.5t58.5 -21q62 0 92.5 36t30.5 96q0 126 -105 136q-32 -3 -56 -13.5z" />
    <glyph glyph-name="uni10EF" unicode="&#x10ef;" horiz-adv-x="678" 
d="M81 -204q54 -26 87 -26q31 0 56.5 23.5t25.5 52.5q0 26 -15 50t-39 24h-40v59l164 126l-88 179q-7 14 -16 22t-27 8q-25 0 -44 -15t-19 -39q0 -18 9.5 -35.5t36.5 -55.5h-79q-16 26 -25 46t-9 47q0 32 19 59.5t49 44t62 16.5q36 0 62.5 -20.5t43.5 -55.5l77 -160l132 100
q25 20 38.5 33t13.5 23l-1 4q-9 4 -23 4h-138v66h138q45 0 70.5 -19.5t25.5 -49.5q0 -19 -10.5 -38.5t-31.5 -36.5l-181 -146l95 -186q11 -22 21 -34t28 -12q15 0 26.5 9.5t14.5 22.5q-4 35 -47 107l-18 33h77l12 -22q20 -35 31 -62.5t11 -59.5q-4 -41 -36 -67t-72 -26
q-67 0 -110 85l-86 172l-105 -77q30 -19 49.5 -50t19.5 -69q0 -40 -18.5 -73t-51.5 -52.5t-75 -19.5q-60 0 -135 40v74z" />
    <glyph glyph-name="uni10F0" unicode="&#x10f0;" horiz-adv-x="484" 
d="M224 601q16 -7 38 -12.5t28 -6.5q41 -9 66.5 -18t43 -27.5t17.5 -49.5q0 -20 -6.5 -33t-18.5 -28l-15 -22q44 -36 44 -86q0 -26 -11.5 -49t-33.5 -37l16 -15q16 -16 23.5 -40.5t7.5 -50.5q0 -75 -54.5 -118t-140.5 -43q-81 0 -132 44.5t-63 124.5q-1 5 -2 16t-1 24
q0 19 3 38h67q-2 -16 -2 -22q0 -9 0.5 -13.5t0.5 -5.5q2 -36 7 -54q11 -43 42 -65t84 -22q54 0 89 27t35 69q0 80 -119 80h-21v66h24q49 0 80 6.5t36 36.5q-3 36 -35 45.5t-84 9.5h-21v66h32q46 4 74 12t28 34q0 14 -18.5 21.5t-57.5 14.5t-66 16q-46 15 -73 42.5t-27 78.5
h71q0 -38 45 -54z" />
    <glyph glyph-name="uni10F1" unicode="&#x10f1;" horiz-adv-x="596" 
d="M39 385q7 136 49 214.5t109 78.5q43 0 69.5 -28t26.5 -75q0 -141 -190 -224v-13q0 -147 58.5 -227t166.5 -80q79 0 125 30.5t46 81.5q0 50 -36.5 75.5t-116.5 32.5v63q47 -14 79 -14q31 0 45 12t14 38q0 21 -12 35t-41.5 26.5t-84.5 26.5v62q53 -22 86 -22q18 0 29.5 12
t11.5 31q0 38 -41 61l-86 53v72l112 -69q80 -50 80 -118q0 -51 -40 -80q51 -33 51 -90q0 -61 -48 -88q63 -38 63 -121q0 -49 -30 -87t-84 -59.5t-122 -21.5q-88 0 -152 42t-99.5 121t-38.5 188l-46 -21v63zM228 577q0 23 -8 33.5t-25 10.5q-20 0 -39.5 -29t-33 -77.5
t-16.5 -103.5q122 61 122 166z" />
    <glyph glyph-name="uni10F2" unicode="&#x10f2;" horiz-adv-x="360" 
d="M180 13q-79 -32 -162 -42v60q37 -2 98 19q-92 52 -92 148q0 72 42.5 114.5t113.5 42.5t113.5 -42.5t42.5 -114.5q0 -96 -92 -148q49 -17 98 -20v-59q-84 11 -162 42zM270 200q0 46 -23 71t-67 25t-67 -25t-23 -71q0 -80 90 -122q90 42 90 122z" />
    <glyph glyph-name="uni10F3" unicode="&#x10f3;" horiz-adv-x="342" 
d="M195 123q5 1 14 1q129 0 129 -191q0 -123 -42 -177.5t-136 -54.5q-78 0 -123 43t-45 117q0 92 68 140l36 -35q-39 -33 -39 -102q0 -47 29.5 -75.5t78.5 -28.5q41 0 64 16.5t33.5 54t10.5 102.5q0 137 -79 137q-34 0 -57 -27l-37 35l121 202h-191v58h294z" />
    <glyph glyph-name="uni10F4" unicode="&#x10f4;" horiz-adv-x="360" 
d="M311.5 8.5q30.5 -45.5 30.5 -111.5q0 -89 -51 -142.5t-135 -53.5q-74 0 -119 42t-45 111q0 63 44 101l39 -31q-18 -28 -18 -64q0 -44 28 -72t74 -28q55 0 86 36t31 100q0 68 -36 101t-109 33h-10l-11 -1q-6 0 -10 1v60q71 -3 115 28t44 84q0 31 -19 50.5t-65 48.5l-33 21
q-125 81 -125 200q0 79 39.5 127.5t104.5 48.5q60 0 97.5 -32t37.5 -84q0 -79 -77 -118l-36 39q46 14 46 76q0 31 -16 46t-49 15q-36 0 -59 -30.5t-23 -79.5q0 -51 25 -85.5t90 -74.5q73 -43 100 -77t27 -83q0 -99 -97 -141q54 -15 84.5 -60.5z" />
    <glyph glyph-name="uni10F5" unicode="&#x10f5;" horiz-adv-x="465" 
d="M285 356h-80q-81 0 -127.5 45t-46.5 123q0 73 44.5 115.5t121.5 42.5q71 0 111 -40t40 -111v-116h112v-59h-112v-57h112v-59h-112v-116q0 -70 -40.5 -110.5t-110.5 -40.5q-76 0 -121 43t-45 116q0 77 47 122t127 45h80v57zM285 528q0 49 -21.5 72.5t-66.5 23.5
q-49 0 -75 -26t-26 -73q0 -56 30.5 -83t92.5 -27h66v113zM219 240q-62 0 -92.5 -27t-30.5 -82q0 -48 26.5 -74t74.5 -26q45 0 66.5 23.5t21.5 71.5v114h-66z" />
    <glyph glyph-name="uni10F6" unicode="&#x10f6;" horiz-adv-x="626" 
d="M217 640q-32 0 -50 -27t-16 -73h-59q-3 70 33 114t96 44q61 0 92.5 -40.5t31.5 -119.5v-224q34 41 92 41q45 0 81.5 -25t57 -68.5t20.5 -97.5q0 -56 -20 -99.5t-56.5 -67.5t-82.5 -24q-58 0 -92 40v-151q0 -52 16 -77t48 -25q33 0 51 27t16 73h58q3 -72 -32 -115.5
t-96 -43.5q-62 0 -93.5 41t-31.5 120v151q-33 -40 -92 -40q-45 0 -81 25t-56.5 68.5t-20.5 97.5q0 55 20 98.5t56 68t82 24.5q60 0 92 -41v224q0 102 -64 102zM254.5 69q26.5 38 26.5 95q0 59 -25.5 95.5t-66.5 36.5q-40 0 -66.5 -37t-26.5 -95q0 -57 26.5 -95t66.5 -38
q39 0 65.5 38zM503 69q27 38 27 95q0 59 -26 95.5t-67 36.5t-66.5 -36.5t-25.5 -95.5q0 -56 26.5 -94.5t65.5 -38.5t66 38z" />
    <glyph glyph-name="uni10F7" unicode="&#x10f7;" horiz-adv-x="340" 
d="M40 234q0 51 36 86t89 35q65 0 101.5 -35.5t36.5 -97.5q0 -77 -52 -126.5t-119 -85.5l-20 -12q-55 -50 -55 -121q0 -56 31 -86.5t88 -30.5q51 0 79 27t28 77q0 67 -39 102l37 34q67 -46 67 -130q0 -77 -47 -123t-127 -46q-83 0 -132.5 48t-49.5 128q0 54 16 88.5t46 60
t97 70.5l49 33q36 32 36 92q0 36 -17.5 55.5t-49.5 19.5q-31 0 -48.5 -18.5t-17.5 -51.5q0 -36 29 -71l-34 -33q-58 36 -58 112z" />
    <glyph glyph-name="uni10F8" unicode="&#x10f8;" horiz-adv-x="399" 
d="M107 355v-53q0 -74 24 -109.5t74 -35.5q43 0 68 26t25 71q0 40 -27 88l53 24q39 -61 39 -122q0 -64 -44 -104.5t-113 -40.5q-58 0 -99 39v-253q0 -64 27.5 -94.5t84.5 -30.5q50 0 80 28.5t30 76.5q0 65 -50 103l37 38q78 -45 78 -149q0 -71 -47.5 -113.5t-127.5 -42.5
q-86 0 -130.5 47t-44.5 138v469h63z" />
    <glyph glyph-name="uni2010" unicode="&#x2010;" horiz-adv-x="166" 
d="M166 163h-164v59h164v-59z" />
    <glyph glyph-name="endash" unicode="&#x2013;" horiz-adv-x="400" 
d="M400 163h-400v59h400v-59z" />
    <glyph glyph-name="emdash" unicode="&#x2014;" horiz-adv-x="800" 
d="M696 163h-592v59h592v-59z" />
    <glyph glyph-name="quoteleft" unicode="&#x2018;" horiz-adv-x="231" 
d="M140 614l43 -17l-75 -209l-59 22z" />
    <glyph glyph-name="quoteright" unicode="&#x2019;" horiz-adv-x="231" 
d="M91 388l-43 17l75 209l59 -22z" />
    <glyph glyph-name="quotesinglbase" unicode="&#x201a;" horiz-adv-x="231" 
d="M92 -138l-43 18l75 208l59 -21z" />
    <glyph glyph-name="quotedblleft" unicode="&#x201c;" horiz-adv-x="366" 
d="M140 614l43 -17l-75 -209l-59 22zM274 614l44 -17l-76 -209l-59 22z" />
    <glyph glyph-name="quotedblright" unicode="&#x201d;" horiz-adv-x="366" 
d="M92 388l-43 17l75 209l59 -22zM226 388l-43 17l75 209l60 -22z" />
    <glyph glyph-name="quotedblbase" unicode="&#x201e;" horiz-adv-x="371" 
d="M92 -138l-43 18l75 208l59 -21zM232 -138l-43 18l75 208l59 -21z" />
    <glyph glyph-name="dagger" unicode="&#x2020;" horiz-adv-x="474" 
d="M270 455h133v-62h-133v-523h-66v523h-134v62h134v148h66v-148z" />
    <glyph glyph-name="daggerdbl" unicode="&#x2021;" horiz-adv-x="474" 
d="M270 455h133v-62h-133v-291h133v-62h-133v-170h-66v170h-134v62h134v291h-134v62h134v148h66v-148z" />
    <glyph glyph-name="bullet" unicode="&#x2022;" horiz-adv-x="474" 
d="M161.5 171q-34.5 20 -55 55t-20.5 76t20 76t55 55t76 20t76 -20t55 -55t20 -76t-20.5 -76t-55.5 -55t-75 -20q-41 0 -75.5 20z" />
    <glyph glyph-name="ellipsis" unicode="&#x2026;" horiz-adv-x="800" 
d="M166 66q13 -13 13 -31q0 -19 -13 -32t-32 -13q-18 0 -31 13t-13 32q0 18 13 31t31 13q19 0 32 -13zM432 66q13 -13 13 -31q0 -19 -13 -32t-32 -13t-32 13t-13 32q0 18 13 31t32 13t32 -13zM697 66q13 -13 13 -31q0 -19 -13 -32t-31 -13q-19 0 -32 13t-13 32q0 18 13 31
t32 13q18 0 31 -13z" />
    <glyph glyph-name="perthousand" unicode="&#x2030;" horiz-adv-x="970" 
d="M229 596.5q31 -17.5 49 -48t18 -66.5t-18.5 -66.5t-49 -48t-66.5 -17.5t-67 17.5t-49.5 47.5t-18.5 67q0 36 18 66.5t49 48t68 17.5q36 0 67 -17.5zM162 -10l-34 20l351 604l32 -20zM103 538.5q-25 -23.5 -25 -56.5t25 -56.5t59 -23.5q33 0 58 23.5t25 56.5t-25 56.5
t-58 23.5q-34 0 -59 -23.5zM547 235.5q31 -17.5 49 -48t18 -66.5t-18 -66t-49 -47.5t-67 -17.5t-67 17t-49 47t-18 67q0 36 18 66.5t49 48t67 17.5t67 -17.5zM875 235.5q31 -17.5 49 -48t18 -66.5t-18 -66t-49 -47.5t-67 -17.5t-67 17t-49 47t-18 67q0 36 18 66.5t49 48
t67 17.5t67 -17.5zM421.5 178.5q-24.5 -23.5 -24.5 -57.5q0 -33 24.5 -56.5t58.5 -23.5t58.5 23.5t24.5 56.5q0 34 -24.5 57.5t-58.5 23.5t-58.5 -23.5zM749.5 178.5q-24.5 -23.5 -24.5 -57.5q0 -33 24.5 -56.5t58.5 -23.5t58.5 23.5t24.5 56.5q0 34 -24.5 57.5t-58.5 23.5
t-58.5 -23.5z" />
    <glyph glyph-name="guilsinglleft" unicode="&#x2039;" horiz-adv-x="264" 
d="M167 26l-134 166l134 170l43 -33l-108 -137l108 -133z" />
    <glyph glyph-name="guilsinglright" unicode="&#x203a;" horiz-adv-x="264" 
d="M54 329l43 33l134 -170l-134 -166l-43 33l108 133z" />
    <glyph glyph-name="fraction" unicode="&#x2044;" horiz-adv-x="129" 
d="M-94 -10l-35 19l351 605l36 -20z" />
    <glyph glyph-name="Euro" unicode="&#x20ac;" 
d="M397.5 540q-34.5 13 -79.5 13q-73 0 -114 -46t-50 -121h261l-18 -51h-251v-32v-33h227l-19 -52h-200q11 -82 53 -125.5t112 -43.5q82 0 135 48v-67q-18 -17 -56 -28.5t-88 -11.5q-93 0 -150.5 56.5t-72.5 171.5h-64l19 52h40l-1 33l1 32h-59l19 51h44q15 105 70 166
t155 61q46 0 84 -12.5t59 -28.5v-66q-22 21 -56.5 34z" />
    <glyph glyph-name="uni2113" unicode="&#x2113;" horiz-adv-x="426" 
d="M335 21q-42 -27 -93 -27q-70 0 -106 45t-39 115v10q-14 -10 -51 -41l-20 37q16 14 24 20q23 17 46 39v237q0 109 39 158t95 49q53 0 80.5 -39.5t27.5 -100.5q0 -78 -47.5 -156t-135.5 -161v-28q1 -68 29 -101.5t70 -33.5q38 0 70.5 26t50.5 60l31 -27q-29 -54 -71 -81z
M257.5 398.5q36.5 62.5 36.5 123.5q0 94 -64 94q-29 0 -52 -37.5t-23 -116.5v-196q66 70 102.5 132.5z" />
    <glyph glyph-name="trademark" unicode="&#x2122;" horiz-adv-x="752" 
d="M190 555v-289h-48v289h-113v48h273v-48h-112zM676 266v289h-2l-115 -289h-31l-112 289h-2v-289h-48v337h81l97 -242l100 242h80v-337h-48z" />
    <glyph glyph-name="uni2126" unicode="&#x2126;" horiz-adv-x="640" 
d="M91 167q-34 69 -34 155q0 83 35 149t95.5 102.5t134.5 36.5q77 0 136 -39t91.5 -104.5t32.5 -140.5q0 -89 -35.5 -160.5t-86.5 -111.5v-3h134v-51h-211v38q57 36 96.5 107.5t39.5 168.5q0 60 -23 116.5t-67.5 92.5t-106.5 36q-60 0 -106 -32.5t-71 -89t-25 -124.5
q0 -93 40 -167t96 -108v-38h-212v51h134v3q-53 44 -87 113z" />
    <glyph glyph-name="estimated" unicode="&#x212e;" horiz-adv-x="752" 
d="M157 289v-170q0 -11 7 -19q42 -43 96.5 -67.5t115.5 -24.5q66 0 124 27.5t99 75.5h51q-48 -56 -120.5 -88.5t-154.5 -32.5q-94 0 -173.5 42t-126 113.5t-46.5 155.5q0 85 46.5 157t126 114t173.5 42t174 -42t126.5 -114t46.5 -157v-8h-561q-4 0 -4 -4zM586 506
q-41 41 -95.5 64.5t-114.5 23.5t-114.5 -24.5t-96.5 -66.5q-8 -7 -8 -21v-167q0 -5 4 -5h430q4 0 4 5v171q0 13 -9 20z" />
    <glyph glyph-name="partialdiff" unicode="&#x2202;" horiz-adv-x="481" 
d="M214 674q59 0 109.5 -36.5t81.5 -110.5t31 -179q0 -101 -26.5 -181.5t-78 -127t-125.5 -46.5q-55 0 -93 28.5t-56.5 74t-18.5 96.5q0 65 25.5 115t68.5 77t93 27q55 0 93.5 -28.5t54.5 -57.5h1q1 10 1 39q0 76 -22.5 134.5t-61 91t-83.5 32.5q-69 0 -118 -41l-23 45
q63 48 147 48zM315 109q41 64 51 154q-12 35 -48 66.5t-84 31.5q-36 0 -67 -22.5t-49.5 -61t-18.5 -84.5q0 -64 31.5 -106t81.5 -42h1q61 0 102 64z" />
    <glyph glyph-name="uni2206" unicode="&#x2206;" horiz-adv-x="572" 
d="M251 618h73l221 -574v-44h-518v43zM346 386l-27 72q-24 62 -33 89h-3q-5 -19 -31 -87q-16 -42 -22 -60l-139 -350h387z" />
    <glyph glyph-name="product" unicode="&#x220f;" horiz-adv-x="617" 
d="M495 -83h-61v628h-252v-628h-61v628h-99v56h571v-56h-98v-628z" />
    <glyph glyph-name="summation" unicode="&#x2211;" horiz-adv-x="490" 
d="M20 -42l239 300l-229 300v43h425v-54h-337v-3l213 -278l-230 -288v-3h368v-58h-449v41z" />
    <glyph glyph-name="minus" unicode="&#x2212;" 
d="M440 236v-62h-387v62h387z" />
    <glyph glyph-name="uni2215" unicode="&#x2215;" horiz-adv-x="129" 
d="M-94 -10l-35 19l351 605l36 -20z" />
    <glyph glyph-name="uni2219" unicode="&#x2219;" horiz-adv-x="246" 
d="M155 236q13 -13 13 -31q0 -19 -13 -32.5t-32 -13.5t-32 13.5t-13 32.5q0 18 13 31t32 13t32 -13z" />
    <glyph glyph-name="radical" unicode="&#x221a;" horiz-adv-x="502" 
d="M250 -130l-141 401l-66 -25l-13 39l117 45l115 -326q8 -25 16 -61l12 61l165 710h47l-196 -844h-56z" />
    <glyph glyph-name="infinity" unicode="&#x221e;" horiz-adv-x="680" 
d="M616.5 176.5q-18.5 -31.5 -49 -48.5t-65.5 -17q-40 0 -76.5 24.5t-84.5 80.5q-46 -52 -82 -78.5t-84 -26.5q-35 0 -64.5 18t-47.5 49t-18 68q0 60 39 99t98 39q44 0 82 -28t80 -78q33 37 53.5 57t49 34.5t62.5 14.5q57 -1 91.5 -38t34.5 -96v-1q0 -41 -18.5 -72.5z
M242.5 171q27.5 21 62.5 59l14 15q-5 6 -31 37t-54.5 47.5t-58.5 16.5q-40 0 -64 -29.5t-24 -71.5q0 -40 26.5 -67.5t67.5 -27.5h1q33 0 60.5 21zM443.5 325q-27.5 -21 -60.5 -57l-18 -19q51 -56 79.5 -77.5t61.5 -21.5q40 0 64 29.5t24 66.5q0 46 -25.5 73t-64.5 27h-1
q-32 0 -59.5 -21z" />
    <glyph glyph-name="integral" unicode="&#x222b;" horiz-adv-x="310" 
d="M254 688q-28 0 -45 -21q-17 -18 -24 -54.5t-7 -99.5q0 -65 6 -213q6 -150 6 -221q0 -117 -37 -173q-14 -22 -36.5 -33t-49.5 -11q-15 0 -31.5 4.5t-25.5 10.5l12 45q24 -12 40 -12q11 0 22 5.5t19 14.5q15 19 23 53.5t8 96.5q0 71 -6 223q-6 150 -6 216q0 72 10.5 114
t36.5 68q15 17 36 25t44 8q12 0 26 -4t22 -8l-11 -44q-16 10 -32 10z" />
    <glyph glyph-name="approxequal" unicode="&#x2248;" horiz-adv-x="498" 
d="M343 266q-25 0 -45 8t-59 30q-28 15 -45.5 22.5t-37.5 7.5q-28 0 -47.5 -17t-40.5 -49l-27 22q20 39 51.5 61t69.5 22q23 0 42 -7.5t34.5 -16t22.5 -12.5q5 -3 22.5 -12.5t32 -14t29.5 -4.5q26 0 45.5 15.5t39.5 49.5l25 -22q-41 -83 -112 -83zM342 118q-24 0 -44 8
t-59 30q-31 16 -47 23t-36 7q-28 0 -48 -17.5t-40 -49.5l-27 23q20 39 51.5 61t69.5 22q23 0 42 -7.5t34.5 -16t22.5 -12.5q8 -4 24.5 -13t30.5 -13.5t30 -4.5q26 0 44.5 15.5t39.5 49.5l25 -23q-42 -82 -113 -82z" />
    <glyph glyph-name="notequal" unicode="&#x2260;" horiz-adv-x="498" 
d="M452 350v-41h-157l-60 -129h217v-41h-234l-48 -104l-32 15l41 89h-134v41h151l60 129h-211v41h227l48 102l32 -15l-40 -87h140z" />
    <glyph glyph-name="lessequal" unicode="&#x2264;" horiz-adv-x="498" 
d="M50 321l400 197v-49l-356 -168v-2l356 -169v-49l-400 197v43zM45 45h407v-42h-407v42z" />
    <glyph glyph-name="greaterequal" unicode="&#x2265;" horiz-adv-x="498" 
d="M450 278l-399 -197v49l355 168v2l-355 169v49l399 -197v-43zM46 45h405v-42h-405v42z" />
    <glyph glyph-name="lozenge" unicode="&#x25ca;" horiz-adv-x="502" 
d="M225 -40l-177 340l178 341h51l177 -341l-179 -340h-50zM251 589h-1q-6 -22 -18 -44l-127 -243l129 -248q10 -22 16 -43h3q7 24 16 43l128 244l-129 247q-8 18 -17 44z" />
    <glyph glyph-name="f_i" horiz-adv-x="415" 
d="M57 0v317h-35v59h35v150q0 33 3 56t14 41q14 24 39.5 35.5t56.5 11.5q22 0 46 -8v-64q-28 8 -43 8q-25 0 -36 -11t-13.5 -31t-2.5 -61v-127h95v-59h-95v-317h-64zM342.5 549.5q13.5 -13.5 13.5 -31.5q0 -19 -13.5 -32.5t-32.5 -13.5q-18 0 -31.5 13.5t-13.5 32.5
q0 18 13.5 31.5t31.5 13.5q19 0 32.5 -13.5zM278 0v376h64v-376h-64z" />
    <glyph glyph-name="f_l" horiz-adv-x="401" 
d="M57 0v317h-35v59h35v150q0 33 3 56t14 41q14 24 39.5 35.5t56.5 11.5q22 0 46 -8v-64q-28 8 -43 8q-25 0 -36 -11t-13.5 -31t-2.5 -61v-127h95v-59h-95v-317h-64zM278 0v660h64v-660h-64z" />
    <glyph glyph-name="a.superior" horiz-adv-x="277" 
d="M219 382v31h-1q-32 -38 -84 -38t-84.5 35t-32.5 84q0 50 32 85t85 35q25 0 47 -10.5t37 -28.5h1v32h42v-225h-42zM80.5 554q-22.5 -24 -22.5 -57q0 -35 22 -61t59 -26q39 0 60.5 25t21.5 61q0 35 -22.5 58.5t-59.5 23.5q-36 0 -58.5 -24z" />
    <glyph glyph-name="o.superior" horiz-adv-x="270" 
d="M43.5 409.5q-37.5 34.5 -37.5 84.5q0 33 17 60.5t47 43.5t65 16t65 -16t47 -43.5t17 -60.5q0 -50 -37.5 -84.5t-91.5 -34.5t-91.5 34.5zM72.5 553.5q-24.5 -24.5 -24.5 -59.5t24.5 -59.5t62.5 -24.5t62.5 24.5t24.5 59.5t-24.5 59.5t-62.5 24.5t-62.5 -24.5z" />
    <glyph glyph-name="one.superior" horiz-adv-x="295" 
d="M114 607h90v-361h-48v320h-65z" />
    <glyph glyph-name="two.superior" horiz-adv-x="295" 
d="M274 246h-253l183 200q22 23 22 60q0 30 -20.5 48t-52.5 18q-35 0 -55 -19t-20 -51h-48q2 48 36 80t85 32q53 0 88 -30t35 -78q0 -21 -6 -41.5t-19 -34.5l-132 -143h157v-41z" />
    <glyph glyph-name="three.superior" horiz-adv-x="295" 
d="M192.5 472q20.5 15 20.5 41q0 27 -19.5 43t-44.5 16q-26 0 -41.5 -14t-18.5 -40h-48q5 44 33 70t76 26t79.5 -28t31.5 -72q0 -24 -13.5 -46t-37.5 -33q28 -11 42 -35t14 -54q0 -50 -33.5 -78.5t-87.5 -28.5q-48 0 -81.5 28t-34.5 72h48q0 -27 19.5 -42.5t49.5 -15.5
q32 0 52 19t20 49q0 31 -21.5 49t-56.5 17v42q32 0 52.5 15z" />
    <glyph glyph-name="uni10E30302" horiz-adv-x="628" 
d="M498 472l-32 -38l-111 70l-113 -70l-30 38l143 99zM320 239q0 34 -4.5 58.5t-20.5 24.5q-13 0 -25.5 -12t-26.5 -31q-5 -5 -8.5 -9.5t-6.5 -7.5q-29 -33 -52.5 -50.5t-55.5 -17.5q-40 0 -67 32.5t-27 75.5q0 15 4 45q2 9 4 27h66q-1 -6 -4 -25t-3 -35q0 -52 28 -52
q15 0 29.5 14t33.5 38q27 36 52 54t59 18q22 0 40.5 -9.5t29.5 -29.5q33 33 86 33q40 0 66 -14.5t39 -45.5q16 -38 16 -101v-258q0 -93 -24 -150q-22 -49 -76 -72.5t-120 -23.5q-99 0 -153.5 56t-54.5 147q0 26 3.5 42.5t12.5 39.5h66q-7 -16 -11 -39t-4 -43q0 -66 35 -101
t106 -35q47 0 78 11t48 36q25 33 25 106v287q0 42 -9.5 67t-43.5 25q-27 0 -46.5 -22.5t-19.5 -49.5v-128h-64v125z" />
    </font>
</defs>
</svg>
