<svg xmlns="http://www.w3.org/2000/svg" width="41.83" height="41.83" viewBox="0 0 41.83 41.83">
  <path id="Path_3454" data-name="Path 3454" d="M84.415,677.612a20.915,20.915,0,1,0,20.915,20.915A20.939,20.939,0,0,0,84.415,677.612Zm13.059,34.382c0-.032,0-.064,0-.1-.06.057-.117.115-.178.171a13.21,13.21,0,0,0-8.106-10.31,7.279,7.279,0,0,0,.37-10.737,7.373,7.373,0,0,0-10.389.079,7.3,7.3,0,0,0,.49,10.655,13.187,13.187,0,0,0-8.106,10.311l-.123-.115c0,.043.007.086.01.128a18.769,18.769,0,1,1,26.03-.086Z" transform="translate(-63.5 -677.612)" fill="#fff"/>
</svg>
