<?xml version="1.0" encoding="utf-8"?>
<!-- Generator: Adobe Illustrator 23.1.0, SVG Export Plug-In . SVG Version: 6.00 Build 0)  -->
<svg version="1.1" id="Layer_1" xmlns="http://www.w3.org/2000/svg" xmlns:xlink="http://www.w3.org/1999/xlink" x="0px" y="0px"
	 viewBox="0 0 178.6 31" style="enable-background:new 0 0 178.6 31;" xml:space="preserve">
<style type="text/css">
	.st0{fill:#496AC1;}
</style>
<g id="Group_3367" transform="translate(84.76 107.296)">
	<path id="Path_1246" class="st0" d="M-30.1-100.8c2,1.1,3.6,2.7,4.7,4.7c1.1,2,1.7,4.4,1.7,6.7c0.1,2.8-0.9,5.6-2.6,7.8l3.6,4.8
		h-5.9l-1.2-1.6c-2.2,1.3-4.6,2-7.2,2c-2.4,0-4.8-0.5-6.9-1.7c-2-1.1-3.6-2.7-4.7-4.7c-2.3-4.2-2.3-9.2,0-13.4
		c1.1-2,2.7-3.6,4.7-4.7C-39.5-103.1-34.4-103.1-30.1-100.8L-30.1-100.8z M-41.1-96.6c-1.2,0.7-2.2,1.7-2.9,2.9
		c-1.4,2.7-1.4,5.9,0,8.6c0.7,1.2,1.6,2.2,2.9,2.9c1.3,0.7,2.7,1.1,4.1,1c1.5,0,3-0.4,4.3-1.1l-4.6-6.1h6l1.7,2.3
		c0.4-1.1,0.6-2.2,0.6-3.4c0-1.5-0.3-3-1-4.3c-0.7-1.2-1.6-2.2-2.9-2.9C-35.4-98-38.5-98-41.1-96.6L-41.1-96.6z"/>
	<path id="Path_1247" class="st0" d="M-8.8-76.8v-1.9c-1.3,1.6-3.2,2.5-5.2,2.4c-1.5,0-3-0.4-4.3-1.2c-1.3-0.8-2.3-2-3-3.3
		c-1.5-3-1.5-6.4,0-9.4c0.7-1.4,1.7-2.5,3-3.3c1.3-0.8,2.8-1.2,4.3-1.2c2-0.1,4,0.8,5.2,2.4v-1.9h4.6v17.5L-8.8-76.8L-8.8-76.8z
		 M-16.5-89c-0.8,0.9-1.3,2.2-1.2,3.4c0,1.3,0.4,2.5,1.2,3.4c1.7,1.8,4.6,1.9,6.4,0.1c0,0,0.1-0.1,0.1-0.1c0.8-1,1.3-2.2,1.2-3.5
		c0-1.3-0.4-2.5-1.2-3.4C-11.7-90.8-14.6-90.8-16.5-89C-16.4-89-16.5-89-16.5-89L-16.5-89z"/>
	<path id="Path_1248" class="st0" d="M9.7-94.3L9-89.7c-0.4-0.2-0.9-0.3-1.4-0.4c-0.5-0.1-1-0.1-1.5-0.1c-1,0-2,0.3-2.7,1
		c-0.7,0.8-1.1,1.9-1,2.9v9.5h-4.7v-17.5h4.5v1.9c1.1-1.6,3-2.5,4.9-2.4C8.1-94.8,8.9-94.6,9.7-94.3z"/>
	<path id="Path_1249" class="st0" d="M18.8-90.1v6.4c-0.1,0.8,0.2,1.6,0.7,2.3c0.5,0.5,1.2,0.8,1.9,0.7c1.2-0.1,2.3-0.5,3.3-1.2
		l1.7,3.7c-0.8,0.6-1.7,1-2.7,1.4c-1,0.3-2,0.5-3.1,0.5c-1.8,0.1-3.6-0.5-4.9-1.8c-1.2-1.5-1.8-3.3-1.7-5.2v-6.8h-3.4v-4.2h3.4v-5.2
		h4.7v5.2h6.3v4.2L18.8-90.1z"/>
	<path id="Path_1250" class="st0" d="M48.8-76.8L36-93.7l0,16.9h-5V-102h4.7l12.8,16.9V-102h5.1v25.3H48.8z"/>
	<path id="Path_1251" class="st0" d="M55-76.8V-102h5v20.5h13.4v4.7L55-76.8z"/>
	<path id="Path_1252" class="st0" d="M79.3-76.8h-5V-102h10.3c3,0,5.2,0.7,6.8,2.1c3.2,3.3,3.2,8.5,0,11.7c-1.6,1.4-3.9,2.1-6.8,2.1
		h-5.3V-76.8z M79.3-90.6h5.2c2.8,0,4.2-1.1,4.2-3.4c0-2.3-1.4-3.4-4.2-3.4h-5.2V-90.6z"/>
</g>
<path id="Path_1253" class="st0" d="M0,2.5v26.1C0,29.9,1.1,31,2.5,31h26.1c1.4,0,2.5-1.1,2.5-2.5V2.5C31,1.1,29.9,0,28.5,0l0,0H2.5
	C1.1,0,0,1.1,0,2.5L0,2.5z M27.8,30.3H27c-0.6,0-1-0.5-1-1l0,0V26h0V7.5C26,6.1,24.9,5,23.6,5l0,0H7.4C6.1,5,5,6.1,5,7.5l0,0v16
	C5,24.9,6.1,26,7.4,26c3.1,0,8,0,8.1,0c1,0,2-0.5,2.8-1.2c0.9-0.9,1.3-2.1,1.2-3.3c0-1.1-0.3-2.1-0.8-3c-0.7-1.1-1.6-2.1-2.5-3
	c-0.8-0.9-1.5-1.6-2-2.3c-0.5-0.7-1-1.4-1.3-2.2c-0.4-0.9-0.5-1.9-0.5-2.9V7.2c0-0.3,0.3-0.6,0.6-0.6h3.4c0.3,0,0.6,0.3,0.6,0.6v0.5
	c0,0.7,0.1,1.3,0.4,1.9c0.3,0.6,0.6,1.1,1,1.5c0.4,0.4,0.9,1,1.6,1.7c0.8,0.7,1.5,1.5,2.2,2.3c0.6,0.8,1.1,1.6,1.5,2.6
	c0.4,1.2,0.6,2.4,0.6,3.7c0,1.6-0.3,3.2-1.1,4.6c0,0.1-0.1,0.1-0.1,0.2c-0.8,1.3-1.9,2.4-3.3,3.1c-1.4,0.7-3,1.1-4.6,1.1H3.2
	c-1.4,0-2.5-1.1-2.5-2.5V3.2c0-1.4,1.1-2.5,2.5-2.5h0h24.7c1.4,0,2.5,1.1,2.5,2.5l0,0v24.7C30.3,29.2,29.2,30.3,27.8,30.3z"/>
</svg>
