<svg xmlns="http://www.w3.org/2000/svg" width="45" height="45" viewBox="0 0 45 45">
  <g id="ic-social-twitter" transform="translate(-0.15)">
    <rect id="Rectangle_494" data-name="Rectangle 494" width="45" height="45" transform="translate(0.15)" fill="none"/>
    <g id="ic-social-twitter-2" data-name="ic-social-twitter" transform="translate(3.788 7.519)">
      <path id="Path_470" data-name="Path 470" d="M39.643,7.577a15.885,15.885,0,0,1-4.517,1.129,8.15,8.15,0,0,0,3.388-4.141A15.528,15.528,0,0,1,33.62,6.448,7.1,7.1,0,0,0,28.162,4a7.529,7.529,0,0,0-7.717,7.529,5.214,5.214,0,0,0,.188,1.694A20.591,20.591,0,0,1,5.2,5.507,5.966,5.966,0,0,0,4.07,9.271a7.849,7.849,0,0,0,3.388,6.4A10.277,10.277,0,0,1,4.07,14.541v.188a7.02,7.02,0,0,0,5.835,7.34,7.058,7.058,0,0,1-2.07.188,4.141,4.141,0,0,1-1.506-.188,7.529,7.529,0,0,0,7.152,5.27,15.509,15.509,0,0,1-9.6,3.2A6.4,6.4,0,0,1,2,30.351a22.473,22.473,0,0,0,13.363,3.764c14.116,0,20.516-11.669,20.516-21.645V11.53a15.057,15.057,0,0,0,3.764-3.953Z" transform="translate(-2 -3.999)" fill="none" stroke="#fff" stroke-linecap="round" stroke-linejoin="round" stroke-width="2.5"/>
    </g>
  </g>
</svg>
