<svg xmlns="http://www.w3.org/2000/svg" width="32.99" height="32.155" viewBox="0 0 32.99 32.155">
  <g id="Group_558" data-name="Group 558" transform="translate(-414.165 -344.057)">
    <g id="Group_557" data-name="Group 557" transform="translate(414.165 344.057)">
      <path id="Path_3443" data-name="Path 3443" d="M441.164,351.42l.076-.038c.184.246.378.485.551.738a14.031,14.031,0,0,1,2.479,7.076,14.069,14.069,0,1,1-25.381-7.347,13.868,13.868,0,0,1,6.752-4.993,13.568,13.568,0,0,1,4.373-.77,1.167,1.167,0,0,0,1.028-.4.948.948,0,0,0,.1-1.052,1.093,1.093,0,0,0-1.115-.573,16.59,16.59,0,0,0-6.247,1.369,16.081,16.081,0,1,0,20.536,6.983c-.407-.73-.882-1.423-1.323-2.129a.1.1,0,0,1,.048-.011c.953.122,1.906.244,2.859.371a1.008,1.008,0,0,0,1.241-.8,1,1,0,0,0-.961-1.183q-2.839-.387-5.68-.761a1.007,1.007,0,0,0-1.242,1.047q-.138,3.007-.266,6.015a1,1,0,0,0,.958,1.158c.636.017,1.024-.4,1.053-1.1C441.052,353.818,441.11,352.619,441.164,351.42Z" transform="translate(-414.165 -344.057)" fill="#fff"/>
      <path id="Path_3444" data-name="Path 3444" d="M441.164,351.42c-.054,1.2-.112,2.4-.161,3.6-.029.706-.417,1.119-1.053,1.1a1,1,0,0,1-.958-1.158q.128-3.008.266-6.015A1.007,1.007,0,0,1,440.5,347.9q2.841.373,5.68.761a1,1,0,0,1,.961,1.183,1.008,1.008,0,0,1-1.241.8c-.952-.128-1.906-.249-2.859-.371a.1.1,0,0,0-.048.011c.441.706.916,1.4,1.323,2.129a16.051,16.051,0,0,1,.1,15.3,16.072,16.072,0,1,1-20.635-22.282,16.59,16.59,0,0,1,6.247-1.369,1.093,1.093,0,0,1,1.115.573.948.948,0,0,1-.1,1.052,1.167,1.167,0,0,1-1.028.4,13.568,13.568,0,0,0-4.373.77,13.868,13.868,0,0,0-6.752,4.993A14.067,14.067,0,1,0,444.27,359.2a14.031,14.031,0,0,0-2.479-7.076c-.174-.253-.367-.493-.551-.738Z" transform="translate(-414.165 -344.057)" fill="#fff"/>
    </g>
  </g>
</svg>
