<svg xmlns="http://www.w3.org/2000/svg" width="31.904" height="31.117" viewBox="0 0 31.904 31.117">
  <path id="Path_3442" data-name="Path 3442" d="M15.952,0a15.953,15.953,0,0,0-5.045,31.086c.8.14,1.1-.339,1.1-.758,0-.379-.02-1.635-.02-2.971-4.008.738-5.045-.977-5.364-1.874A5.8,5.8,0,0,0,4.985,23.23c-.558-.3-1.356-1.037-.02-1.057a3.192,3.192,0,0,1,2.453,1.635,3.41,3.41,0,0,0,4.646,1.316,3.356,3.356,0,0,1,1.017-2.134c-3.549-.4-7.258-1.775-7.258-7.876a6.208,6.208,0,0,1,1.635-4.287A5.732,5.732,0,0,1,7.617,6.6S8.953,6.181,12,8.235a15.04,15.04,0,0,1,7.976,0C23.031,6.161,24.367,6.6,24.367,6.6a5.732,5.732,0,0,1,.16,4.227,6.172,6.172,0,0,1,1.635,4.287c0,6.122-3.729,7.477-7.278,7.876a3.778,3.778,0,0,1,1.077,2.951c0,2.134-.02,3.848-.02,4.387,0,.419.3.917,1.1.758A15.96,15.96,0,0,0,15.952,0Z" fill="#fff" fill-rule="evenodd"/>
</svg>
