<svg xmlns="http://www.w3.org/2000/svg" width="41.83" height="41.771" viewBox="0 0 41.83 41.771">
  <g id="Group_572" data-name="Group 572" transform="translate(-1856 -27.229)">
    <path id="Path_3450" data-name="Path 3450" d="M405.555,713.021c.183-6.9,2.492-12.2,7.245-16.327a20.3,20.3,0,0,1,15.535-5.023,20.707,20.707,0,0,1,6.388,1.57.539.539,0,0,0,.636-.095A7.413,7.413,0,0,1,446.2,694.9a7.283,7.283,0,0,1-.427,8.554.743.743,0,0,0-.115.875,20.744,20.744,0,0,1-5.395,23.746A20.327,20.327,0,0,1,423.7,733.11a20.056,20.056,0,0,1-10.54-4.594A20.291,20.291,0,0,1,406.1,716.91C405.782,715.433,405.675,713.912,405.555,713.021Zm28.056-17.887a18.709,18.709,0,0,0-20.009,30.89,13.181,13.181,0,0,1,8.1-10.306,7.291,7.291,0,0,1-.49-10.65,7.369,7.369,0,0,1,10.384-.079,7.276,7.276,0,0,1-.37,10.732,13.2,13.2,0,0,1,8.1,10.3,18.666,18.666,0,0,0,4.43-20.761,7.338,7.338,0,0,1-8.907-1.1A7.418,7.418,0,0,1,433.611,695.133Zm-6.823,36.049c.411-.031,1.14-.066,1.865-.143a18.015,18.015,0,0,0,7.918-2.8.44.44,0,0,0,.18-.306,8.02,8.02,0,0,0-.033-1.16,10.22,10.22,0,0,0-8.673-9.1,9.9,9.9,0,0,0-9.708,3.865,9.7,9.7,0,0,0-2.159,6.068c0,.247-.1.476.219.678A19.19,19.19,0,0,0,426.789,731.182Zm4.335-20.946a4.66,4.66,0,1,0-4.806,4.63A4.647,4.647,0,0,0,431.124,710.236Zm3.643-11.257a5.241,5.241,0,1,0,10.482-.065,5.241,5.241,0,1,0-10.482.065Z" transform="translate(1450.445 -664.295)" fill="#fff"/>
    <path id="Path_3451" data-name="Path 3451" d="M582.039,716.812c0-.409-.008-.751,0-1.092a1.062,1.062,0,1,1,2.123-.059c.026.366,0,.735,0,1.151.421,0,.789-.006,1.157,0a1.045,1.045,0,0,1,.12,2.084,5.967,5.967,0,0,1-.622.032c-.192.005-.385,0-.652,0,0,.346,0,.666,0,.986-.01.752-.418,1.217-1.066,1.218s-1.06-.453-1.066-1.209c0-.31,0-.62,0-.967-.442-.021-.853-.02-1.26-.065a1.043,1.043,0,0,1-.368-1.95,1.422,1.422,0,0,1,.554-.126C581.3,716.8,581.643,716.812,582.039,716.812Z" transform="translate(1307.295 -683.255)" fill="#fff"/>
  </g>
</svg>
