<svg xmlns="http://www.w3.org/2000/svg" width="53.439" height="53.44" viewBox="0 0 53.439 53.44">
  <path id="Path_3350" data-name="Path 3350" d="M1083.535,2449.346h0l-.155,0v-.524h.155a26.719,26.719,0,1,1,0,53.438h-.155v-.524h.155a26.193,26.193,0,0,0,26.2-26.194h0a26.2,26.2,0,0,0-26.2-26.2m-.155,51.053a24.865,24.865,0,0,0,0-49.731v.392a24.477,24.477,0,0,1,24.472,24.474h0a24.475,24.475,0,0,1-24.472,24.473Zm0-7.4a17.572,17.572,0,0,0,17.57-17.568h0a17.575,17.575,0,0,0-17.57-17.569v.394a17.183,17.183,0,0,1,17.177,17.175h0a17.183,17.183,0,0,1-17.177,17.177Zm0-43.652a26.2,26.2,0,0,0-26.041,26.194h0a26.194,26.194,0,0,0,26.041,26.194v.524a26.718,26.718,0,0,1,0-53.436Zm0,1.321h0a24.866,24.866,0,0,0-24.865,24.865h0a24.871,24.871,0,0,0,24.865,24.865h0v-.392a24.474,24.474,0,0,1,0-48.947h0Zm0,7.193h0a17.572,17.572,0,0,0-17.57,17.569h0a17.569,17.569,0,0,0,17.57,17.568h0v-.392h0a17.18,17.18,0,0,1-17.178-17.177h0a17.18,17.18,0,0,1,17.178-17.175Z" transform="translate(-1056.816 -2448.821)" fill="#fff" fill-rule="evenodd"/>
</svg>
